%TF.GenerationSoftware,KiCad,Pcbnew,9.0.2*%
%TF.CreationDate,2026-09-22T20:08:41-04:00*%
%TF.ProjectId,holocube,686f6c6f-6375-4626-952e-6b696361645f,rev?*%
%TF.SameCoordinates,Original*%
%TF.FileFunction,Soldermask,Bot*%
%TF.FilePolarity,Negative*%
%FSLAX46Y46*%
G04 Gerber Fmt 4.6, Leading zero omitted, Abs format (unit mm)*
G04 Created by KiCad (PCBNEW 9.0.2) date 2026-09-22 20:08:41*
%MOMM*%
%LPD*%
G01*
G04 APERTURE LIST*
G04 Aperture macros list*
%AMRoundRect*
0 Rectangle with rounded corners*
0 $1 Rounding radius*
0 $2 $3 $4 $5 $6 $7 $8 $9 X,Y pos of 4 corners*
0 Add a 4 corners polygon primitive as box body*
4,1,4,$2,$3,$4,$5,$6,$7,$8,$9,$2,$3,0*
0 Add four circle primitives for the rounded corners*
1,1,$1+$1,$2,$3*
1,1,$1+$1,$4,$5*
1,1,$1+$1,$6,$7*
1,1,$1+$1,$8,$9*
0 Add four rect primitives between the rounded corners*
20,1,$1+$1,$2,$3,$4,$5,0*
20,1,$1+$1,$4,$5,$6,$7,0*
20,1,$1+$1,$6,$7,$8,$9,0*
20,1,$1+$1,$8,$9,$2,$3,0*%
G04 Aperture macros list end*
%ADD10R,4.000000X4.000000*%
%ADD11O,1.204000X2.004000*%
%ADD12O,1.204000X2.304000*%
%ADD13C,0.650000*%
%ADD14C,2.134400*%
%ADD15RoundRect,0.102000X-0.965200X-0.965200X0.965200X-0.965200X0.965200X0.965200X-0.965200X0.965200X0*%
%ADD16C,1.800000*%
%ADD17C,3.200000*%
G04 APERTURE END LIST*
D10*
%TO.C,U10*%
X137723000Y-116594000D03*
X154648000Y-116594000D03*
X137673000Y-77594000D03*
X154648000Y-77594000D03*
%TD*%
D11*
%TO.C,J2*%
X161370000Y-71523000D03*
X170010000Y-71523000D03*
D12*
X161370000Y-75703000D03*
X170010000Y-75703000D03*
D13*
X162800000Y-75203000D03*
X168580000Y-75203000D03*
%TD*%
D14*
%TO.C,U11*%
X147585000Y-122768000D03*
X150125000Y-122768000D03*
D15*
X157745000Y-122768000D03*
D14*
X152665000Y-122768000D03*
X155205000Y-122768000D03*
%TD*%
D16*
%TO.C,U9*%
X133346000Y-79710000D03*
X133346000Y-82250000D03*
X133346000Y-84790000D03*
X133346000Y-87330000D03*
X133346000Y-89870000D03*
X133346000Y-92410000D03*
X133346000Y-94950000D03*
X133346000Y-97490000D03*
X133346000Y-100030000D03*
X133346000Y-102570000D03*
X133346000Y-105110000D03*
X133346000Y-107650000D03*
X133346000Y-110190000D03*
X133346000Y-112730000D03*
X133346000Y-115270000D03*
X159006000Y-79710000D03*
X159006000Y-82250000D03*
X159006000Y-84790000D03*
X159006000Y-87330000D03*
X159006000Y-89870000D03*
X159006000Y-92410000D03*
X159006000Y-94950000D03*
X159006000Y-97490000D03*
X159006000Y-100030000D03*
X159006000Y-102570000D03*
X159006000Y-105110000D03*
X159006000Y-107650000D03*
X159006000Y-110190000D03*
X159006000Y-112730000D03*
X159006000Y-115270000D03*
%TD*%
D17*
%TO.C,REF\u002A\u002A*%
X176125000Y-121125000D03*
%TD*%
%TO.C,REF\u002A\u002A1*%
X128375000Y-73375000D03*
%TD*%
%TO.C,REF\u002A\u002A2*%
X176125000Y-73375000D03*
%TD*%
%TO.C,REF\u002A\u002A3*%
X128375000Y-121125000D03*
%TD*%
M02*
