%TF.GenerationSoftware,KiCad,Pcbnew,9.0.2*%
%TF.CreationDate,2026-09-22T20:08:41-04:00*%
%TF.ProjectId,holocube,686f6c6f-6375-4626-952e-6b696361645f,rev?*%
%TF.SameCoordinates,Original*%
%TF.FileFunction,Legend,Top*%
%TF.FilePolarity,Positive*%
%FSLAX46Y46*%
G04 Gerber Fmt 4.6, Leading zero omitted, Abs format (unit mm)*
G04 Created by KiCad (PCBNEW 9.0.2) date 2026-09-22 20:08:41*
%MOMM*%
%LPD*%
G01*
G04 APERTURE LIST*
%ADD10C,0.160000*%
%ADD11C,0.050000*%
%ADD12C,0.150000*%
%ADD13C,0.200000*%
%ADD14C,0.152400*%
%ADD15C,0.127000*%
%ADD16C,0.120000*%
G04 APERTURE END LIST*
D10*
X126570865Y-116451308D02*
X126570865Y-116832260D01*
X126570865Y-116832260D02*
X125770865Y-116832260D01*
X126570865Y-115841784D02*
X126151817Y-115841784D01*
X126151817Y-115841784D02*
X126075627Y-115879879D01*
X126075627Y-115879879D02*
X126037531Y-115956070D01*
X126037531Y-115956070D02*
X126037531Y-116108451D01*
X126037531Y-116108451D02*
X126075627Y-116184641D01*
X126532770Y-115841784D02*
X126570865Y-115917975D01*
X126570865Y-115917975D02*
X126570865Y-116108451D01*
X126570865Y-116108451D02*
X126532770Y-116184641D01*
X126532770Y-116184641D02*
X126456579Y-116222737D01*
X126456579Y-116222737D02*
X126380389Y-116222737D01*
X126380389Y-116222737D02*
X126304198Y-116184641D01*
X126304198Y-116184641D02*
X126266103Y-116108451D01*
X126266103Y-116108451D02*
X126266103Y-115917975D01*
X126266103Y-115917975D02*
X126228008Y-115841784D01*
X126532770Y-115498927D02*
X126570865Y-115422736D01*
X126570865Y-115422736D02*
X126570865Y-115270355D01*
X126570865Y-115270355D02*
X126532770Y-115194165D01*
X126532770Y-115194165D02*
X126456579Y-115156069D01*
X126456579Y-115156069D02*
X126418484Y-115156069D01*
X126418484Y-115156069D02*
X126342293Y-115194165D01*
X126342293Y-115194165D02*
X126304198Y-115270355D01*
X126304198Y-115270355D02*
X126304198Y-115384641D01*
X126304198Y-115384641D02*
X126266103Y-115460831D01*
X126266103Y-115460831D02*
X126189912Y-115498927D01*
X126189912Y-115498927D02*
X126151817Y-115498927D01*
X126151817Y-115498927D02*
X126075627Y-115460831D01*
X126075627Y-115460831D02*
X126037531Y-115384641D01*
X126037531Y-115384641D02*
X126037531Y-115270355D01*
X126037531Y-115270355D02*
X126075627Y-115194165D01*
X126037531Y-114927498D02*
X126037531Y-114622736D01*
X125770865Y-114813212D02*
X126456579Y-114813212D01*
X126456579Y-114813212D02*
X126532770Y-114775117D01*
X126532770Y-114775117D02*
X126570865Y-114698927D01*
X126570865Y-114698927D02*
X126570865Y-114622736D01*
X126037531Y-113403688D02*
X126570865Y-113403688D01*
X126037531Y-113746545D02*
X126456579Y-113746545D01*
X126456579Y-113746545D02*
X126532770Y-113708450D01*
X126532770Y-113708450D02*
X126570865Y-113632260D01*
X126570865Y-113632260D02*
X126570865Y-113517974D01*
X126570865Y-113517974D02*
X126532770Y-113441783D01*
X126532770Y-113441783D02*
X126494674Y-113403688D01*
X126037531Y-113022735D02*
X126837531Y-113022735D01*
X126075627Y-113022735D02*
X126037531Y-112946545D01*
X126037531Y-112946545D02*
X126037531Y-112794164D01*
X126037531Y-112794164D02*
X126075627Y-112717973D01*
X126075627Y-112717973D02*
X126113722Y-112679878D01*
X126113722Y-112679878D02*
X126189912Y-112641783D01*
X126189912Y-112641783D02*
X126418484Y-112641783D01*
X126418484Y-112641783D02*
X126494674Y-112679878D01*
X126494674Y-112679878D02*
X126532770Y-112717973D01*
X126532770Y-112717973D02*
X126570865Y-112794164D01*
X126570865Y-112794164D02*
X126570865Y-112946545D01*
X126570865Y-112946545D02*
X126532770Y-113022735D01*
X126570865Y-111956068D02*
X125770865Y-111956068D01*
X126532770Y-111956068D02*
X126570865Y-112032259D01*
X126570865Y-112032259D02*
X126570865Y-112184640D01*
X126570865Y-112184640D02*
X126532770Y-112260830D01*
X126532770Y-112260830D02*
X126494674Y-112298925D01*
X126494674Y-112298925D02*
X126418484Y-112337021D01*
X126418484Y-112337021D02*
X126189912Y-112337021D01*
X126189912Y-112337021D02*
X126113722Y-112298925D01*
X126113722Y-112298925D02*
X126075627Y-112260830D01*
X126075627Y-112260830D02*
X126037531Y-112184640D01*
X126037531Y-112184640D02*
X126037531Y-112032259D01*
X126037531Y-112032259D02*
X126075627Y-111956068D01*
X126570865Y-111232258D02*
X126151817Y-111232258D01*
X126151817Y-111232258D02*
X126075627Y-111270353D01*
X126075627Y-111270353D02*
X126037531Y-111346544D01*
X126037531Y-111346544D02*
X126037531Y-111498925D01*
X126037531Y-111498925D02*
X126075627Y-111575115D01*
X126532770Y-111232258D02*
X126570865Y-111308449D01*
X126570865Y-111308449D02*
X126570865Y-111498925D01*
X126570865Y-111498925D02*
X126532770Y-111575115D01*
X126532770Y-111575115D02*
X126456579Y-111613211D01*
X126456579Y-111613211D02*
X126380389Y-111613211D01*
X126380389Y-111613211D02*
X126304198Y-111575115D01*
X126304198Y-111575115D02*
X126266103Y-111498925D01*
X126266103Y-111498925D02*
X126266103Y-111308449D01*
X126266103Y-111308449D02*
X126228008Y-111232258D01*
X126037531Y-110965591D02*
X126037531Y-110660829D01*
X125770865Y-110851305D02*
X126456579Y-110851305D01*
X126456579Y-110851305D02*
X126532770Y-110813210D01*
X126532770Y-110813210D02*
X126570865Y-110737020D01*
X126570865Y-110737020D02*
X126570865Y-110660829D01*
X126532770Y-110089400D02*
X126570865Y-110165591D01*
X126570865Y-110165591D02*
X126570865Y-110317972D01*
X126570865Y-110317972D02*
X126532770Y-110394162D01*
X126532770Y-110394162D02*
X126456579Y-110432258D01*
X126456579Y-110432258D02*
X126151817Y-110432258D01*
X126151817Y-110432258D02*
X126075627Y-110394162D01*
X126075627Y-110394162D02*
X126037531Y-110317972D01*
X126037531Y-110317972D02*
X126037531Y-110165591D01*
X126037531Y-110165591D02*
X126075627Y-110089400D01*
X126075627Y-110089400D02*
X126151817Y-110051305D01*
X126151817Y-110051305D02*
X126228008Y-110051305D01*
X126228008Y-110051305D02*
X126304198Y-110432258D01*
X126570865Y-109365591D02*
X125770865Y-109365591D01*
X126532770Y-109365591D02*
X126570865Y-109441782D01*
X126570865Y-109441782D02*
X126570865Y-109594163D01*
X126570865Y-109594163D02*
X126532770Y-109670353D01*
X126532770Y-109670353D02*
X126494674Y-109708448D01*
X126494674Y-109708448D02*
X126418484Y-109746544D01*
X126418484Y-109746544D02*
X126189912Y-109746544D01*
X126189912Y-109746544D02*
X126113722Y-109708448D01*
X126113722Y-109708448D02*
X126075627Y-109670353D01*
X126075627Y-109670353D02*
X126037531Y-109594163D01*
X126037531Y-109594163D02*
X126037531Y-109441782D01*
X126037531Y-109441782D02*
X126075627Y-109365591D01*
X126494674Y-108984638D02*
X126532770Y-108946543D01*
X126532770Y-108946543D02*
X126570865Y-108984638D01*
X126570865Y-108984638D02*
X126532770Y-109022734D01*
X126532770Y-109022734D02*
X126494674Y-108984638D01*
X126494674Y-108984638D02*
X126570865Y-108984638D01*
X126075627Y-108984638D02*
X126113722Y-108946543D01*
X126113722Y-108946543D02*
X126151817Y-108984638D01*
X126151817Y-108984638D02*
X126113722Y-109022734D01*
X126113722Y-109022734D02*
X126075627Y-108984638D01*
X126075627Y-108984638D02*
X126151817Y-108984638D01*
X127058820Y-116679879D02*
X127058820Y-116603689D01*
X127058820Y-116603689D02*
X127096915Y-116527498D01*
X127096915Y-116527498D02*
X127135010Y-116489403D01*
X127135010Y-116489403D02*
X127211201Y-116451308D01*
X127211201Y-116451308D02*
X127363582Y-116413213D01*
X127363582Y-116413213D02*
X127554058Y-116413213D01*
X127554058Y-116413213D02*
X127706439Y-116451308D01*
X127706439Y-116451308D02*
X127782629Y-116489403D01*
X127782629Y-116489403D02*
X127820725Y-116527498D01*
X127820725Y-116527498D02*
X127858820Y-116603689D01*
X127858820Y-116603689D02*
X127858820Y-116679879D01*
X127858820Y-116679879D02*
X127820725Y-116756070D01*
X127820725Y-116756070D02*
X127782629Y-116794165D01*
X127782629Y-116794165D02*
X127706439Y-116832260D01*
X127706439Y-116832260D02*
X127554058Y-116870356D01*
X127554058Y-116870356D02*
X127363582Y-116870356D01*
X127363582Y-116870356D02*
X127211201Y-116832260D01*
X127211201Y-116832260D02*
X127135010Y-116794165D01*
X127135010Y-116794165D02*
X127096915Y-116756070D01*
X127096915Y-116756070D02*
X127058820Y-116679879D01*
X127858820Y-116032260D02*
X127858820Y-115879879D01*
X127858820Y-115879879D02*
X127820725Y-115803689D01*
X127820725Y-115803689D02*
X127782629Y-115765593D01*
X127782629Y-115765593D02*
X127668344Y-115689403D01*
X127668344Y-115689403D02*
X127515963Y-115651308D01*
X127515963Y-115651308D02*
X127211201Y-115651308D01*
X127211201Y-115651308D02*
X127135010Y-115689403D01*
X127135010Y-115689403D02*
X127096915Y-115727498D01*
X127096915Y-115727498D02*
X127058820Y-115803689D01*
X127058820Y-115803689D02*
X127058820Y-115956070D01*
X127058820Y-115956070D02*
X127096915Y-116032260D01*
X127096915Y-116032260D02*
X127135010Y-116070355D01*
X127135010Y-116070355D02*
X127211201Y-116108451D01*
X127211201Y-116108451D02*
X127401677Y-116108451D01*
X127401677Y-116108451D02*
X127477867Y-116070355D01*
X127477867Y-116070355D02*
X127515963Y-116032260D01*
X127515963Y-116032260D02*
X127554058Y-115956070D01*
X127554058Y-115956070D02*
X127554058Y-115803689D01*
X127554058Y-115803689D02*
X127515963Y-115727498D01*
X127515963Y-115727498D02*
X127477867Y-115689403D01*
X127477867Y-115689403D02*
X127401677Y-115651308D01*
X127020725Y-114737022D02*
X128049296Y-115422736D01*
X127135010Y-114508451D02*
X127096915Y-114470355D01*
X127096915Y-114470355D02*
X127058820Y-114394165D01*
X127058820Y-114394165D02*
X127058820Y-114203689D01*
X127058820Y-114203689D02*
X127096915Y-114127498D01*
X127096915Y-114127498D02*
X127135010Y-114089403D01*
X127135010Y-114089403D02*
X127211201Y-114051308D01*
X127211201Y-114051308D02*
X127287391Y-114051308D01*
X127287391Y-114051308D02*
X127401677Y-114089403D01*
X127401677Y-114089403D02*
X127858820Y-114546546D01*
X127858820Y-114546546D02*
X127858820Y-114051308D01*
X127135010Y-113746546D02*
X127096915Y-113708450D01*
X127096915Y-113708450D02*
X127058820Y-113632260D01*
X127058820Y-113632260D02*
X127058820Y-113441784D01*
X127058820Y-113441784D02*
X127096915Y-113365593D01*
X127096915Y-113365593D02*
X127135010Y-113327498D01*
X127135010Y-113327498D02*
X127211201Y-113289403D01*
X127211201Y-113289403D02*
X127287391Y-113289403D01*
X127287391Y-113289403D02*
X127401677Y-113327498D01*
X127401677Y-113327498D02*
X127858820Y-113784641D01*
X127858820Y-113784641D02*
X127858820Y-113289403D01*
X127020725Y-112375117D02*
X128049296Y-113060831D01*
X127135010Y-112146546D02*
X127096915Y-112108450D01*
X127096915Y-112108450D02*
X127058820Y-112032260D01*
X127058820Y-112032260D02*
X127058820Y-111841784D01*
X127058820Y-111841784D02*
X127096915Y-111765593D01*
X127096915Y-111765593D02*
X127135010Y-111727498D01*
X127135010Y-111727498D02*
X127211201Y-111689403D01*
X127211201Y-111689403D02*
X127287391Y-111689403D01*
X127287391Y-111689403D02*
X127401677Y-111727498D01*
X127401677Y-111727498D02*
X127858820Y-112184641D01*
X127858820Y-112184641D02*
X127858820Y-111689403D01*
X127058820Y-111003688D02*
X127058820Y-111156069D01*
X127058820Y-111156069D02*
X127096915Y-111232260D01*
X127096915Y-111232260D02*
X127135010Y-111270355D01*
X127135010Y-111270355D02*
X127249296Y-111346545D01*
X127249296Y-111346545D02*
X127401677Y-111384641D01*
X127401677Y-111384641D02*
X127706439Y-111384641D01*
X127706439Y-111384641D02*
X127782629Y-111346545D01*
X127782629Y-111346545D02*
X127820725Y-111308450D01*
X127820725Y-111308450D02*
X127858820Y-111232260D01*
X127858820Y-111232260D02*
X127858820Y-111079879D01*
X127858820Y-111079879D02*
X127820725Y-111003688D01*
X127820725Y-111003688D02*
X127782629Y-110965593D01*
X127782629Y-110965593D02*
X127706439Y-110927498D01*
X127706439Y-110927498D02*
X127515963Y-110927498D01*
X127515963Y-110927498D02*
X127439772Y-110965593D01*
X127439772Y-110965593D02*
X127401677Y-111003688D01*
X127401677Y-111003688D02*
X127363582Y-111079879D01*
X127363582Y-111079879D02*
X127363582Y-111232260D01*
X127363582Y-111232260D02*
X127401677Y-111308450D01*
X127401677Y-111308450D02*
X127439772Y-111346545D01*
X127439772Y-111346545D02*
X127515963Y-111384641D01*
X129146775Y-116832260D02*
X128346775Y-116832260D01*
X128346775Y-116832260D02*
X128918203Y-116565594D01*
X128918203Y-116565594D02*
X128346775Y-116298927D01*
X128346775Y-116298927D02*
X129146775Y-116298927D01*
X129146775Y-115575117D02*
X128727727Y-115575117D01*
X128727727Y-115575117D02*
X128651537Y-115613212D01*
X128651537Y-115613212D02*
X128613441Y-115689403D01*
X128613441Y-115689403D02*
X128613441Y-115841784D01*
X128613441Y-115841784D02*
X128651537Y-115917974D01*
X129108680Y-115575117D02*
X129146775Y-115651308D01*
X129146775Y-115651308D02*
X129146775Y-115841784D01*
X129146775Y-115841784D02*
X129108680Y-115917974D01*
X129108680Y-115917974D02*
X129032489Y-115956070D01*
X129032489Y-115956070D02*
X128956299Y-115956070D01*
X128956299Y-115956070D02*
X128880108Y-115917974D01*
X128880108Y-115917974D02*
X128842013Y-115841784D01*
X128842013Y-115841784D02*
X128842013Y-115651308D01*
X128842013Y-115651308D02*
X128803918Y-115575117D01*
X129146775Y-114851307D02*
X128346775Y-114851307D01*
X129108680Y-114851307D02*
X129146775Y-114927498D01*
X129146775Y-114927498D02*
X129146775Y-115079879D01*
X129146775Y-115079879D02*
X129108680Y-115156069D01*
X129108680Y-115156069D02*
X129070584Y-115194164D01*
X129070584Y-115194164D02*
X128994394Y-115232260D01*
X128994394Y-115232260D02*
X128765822Y-115232260D01*
X128765822Y-115232260D02*
X128689632Y-115194164D01*
X128689632Y-115194164D02*
X128651537Y-115156069D01*
X128651537Y-115156069D02*
X128613441Y-115079879D01*
X128613441Y-115079879D02*
X128613441Y-114927498D01*
X128613441Y-114927498D02*
X128651537Y-114851307D01*
X129108680Y-114165592D02*
X129146775Y-114241783D01*
X129146775Y-114241783D02*
X129146775Y-114394164D01*
X129146775Y-114394164D02*
X129108680Y-114470354D01*
X129108680Y-114470354D02*
X129032489Y-114508450D01*
X129032489Y-114508450D02*
X128727727Y-114508450D01*
X128727727Y-114508450D02*
X128651537Y-114470354D01*
X128651537Y-114470354D02*
X128613441Y-114394164D01*
X128613441Y-114394164D02*
X128613441Y-114241783D01*
X128613441Y-114241783D02*
X128651537Y-114165592D01*
X128651537Y-114165592D02*
X128727727Y-114127497D01*
X128727727Y-114127497D02*
X128803918Y-114127497D01*
X128803918Y-114127497D02*
X128880108Y-114508450D01*
X128613441Y-113251307D02*
X129146775Y-113098926D01*
X129146775Y-113098926D02*
X128765822Y-112946545D01*
X128765822Y-112946545D02*
X129146775Y-112794164D01*
X129146775Y-112794164D02*
X128613441Y-112641783D01*
X129146775Y-112337021D02*
X128613441Y-112337021D01*
X128346775Y-112337021D02*
X128384870Y-112375117D01*
X128384870Y-112375117D02*
X128422965Y-112337021D01*
X128422965Y-112337021D02*
X128384870Y-112298926D01*
X128384870Y-112298926D02*
X128346775Y-112337021D01*
X128346775Y-112337021D02*
X128422965Y-112337021D01*
X128613441Y-112070355D02*
X128613441Y-111765593D01*
X128346775Y-111956069D02*
X129032489Y-111956069D01*
X129032489Y-111956069D02*
X129108680Y-111917974D01*
X129108680Y-111917974D02*
X129146775Y-111841784D01*
X129146775Y-111841784D02*
X129146775Y-111765593D01*
X129146775Y-111498926D02*
X128346775Y-111498926D01*
X129146775Y-111156069D02*
X128727727Y-111156069D01*
X128727727Y-111156069D02*
X128651537Y-111194164D01*
X128651537Y-111194164D02*
X128613441Y-111270355D01*
X128613441Y-111270355D02*
X128613441Y-111384641D01*
X128613441Y-111384641D02*
X128651537Y-111460831D01*
X128651537Y-111460831D02*
X128689632Y-111498926D01*
X129146775Y-110051307D02*
X129108680Y-110127497D01*
X129108680Y-110127497D02*
X129032489Y-110165592D01*
X129032489Y-110165592D02*
X128346775Y-110165592D01*
X129146775Y-109632259D02*
X129108680Y-109708449D01*
X129108680Y-109708449D02*
X129070584Y-109746544D01*
X129070584Y-109746544D02*
X128994394Y-109784640D01*
X128994394Y-109784640D02*
X128765822Y-109784640D01*
X128765822Y-109784640D02*
X128689632Y-109746544D01*
X128689632Y-109746544D02*
X128651537Y-109708449D01*
X128651537Y-109708449D02*
X128613441Y-109632259D01*
X128613441Y-109632259D02*
X128613441Y-109517973D01*
X128613441Y-109517973D02*
X128651537Y-109441782D01*
X128651537Y-109441782D02*
X128689632Y-109403687D01*
X128689632Y-109403687D02*
X128765822Y-109365592D01*
X128765822Y-109365592D02*
X128994394Y-109365592D01*
X128994394Y-109365592D02*
X129070584Y-109403687D01*
X129070584Y-109403687D02*
X129108680Y-109441782D01*
X129108680Y-109441782D02*
X129146775Y-109517973D01*
X129146775Y-109517973D02*
X129146775Y-109632259D01*
X128613441Y-109098925D02*
X129146775Y-108908449D01*
X129146775Y-108908449D02*
X128613441Y-108717972D01*
X129108680Y-108108448D02*
X129146775Y-108184639D01*
X129146775Y-108184639D02*
X129146775Y-108337020D01*
X129146775Y-108337020D02*
X129108680Y-108413210D01*
X129108680Y-108413210D02*
X129032489Y-108451306D01*
X129032489Y-108451306D02*
X128727727Y-108451306D01*
X128727727Y-108451306D02*
X128651537Y-108413210D01*
X128651537Y-108413210D02*
X128613441Y-108337020D01*
X128613441Y-108337020D02*
X128613441Y-108184639D01*
X128613441Y-108184639D02*
X128651537Y-108108448D01*
X128651537Y-108108448D02*
X128727727Y-108070353D01*
X128727727Y-108070353D02*
X128803918Y-108070353D01*
X128803918Y-108070353D02*
X128880108Y-108451306D01*
X129070584Y-107117972D02*
X129108680Y-107079877D01*
X129108680Y-107079877D02*
X129146775Y-107117972D01*
X129146775Y-107117972D02*
X129108680Y-107156068D01*
X129108680Y-107156068D02*
X129070584Y-107117972D01*
X129070584Y-107117972D02*
X129146775Y-107117972D01*
X128651537Y-107117972D02*
X128689632Y-107079877D01*
X128689632Y-107079877D02*
X128727727Y-107117972D01*
X128727727Y-107117972D02*
X128689632Y-107156068D01*
X128689632Y-107156068D02*
X128651537Y-107117972D01*
X128651537Y-107117972D02*
X128727727Y-107117972D01*
X129451537Y-106813211D02*
X129413441Y-106775116D01*
X129413441Y-106775116D02*
X129299156Y-106698925D01*
X129299156Y-106698925D02*
X129222965Y-106660830D01*
X129222965Y-106660830D02*
X129108680Y-106622735D01*
X129108680Y-106622735D02*
X128918203Y-106584639D01*
X128918203Y-106584639D02*
X128765822Y-106584639D01*
X128765822Y-106584639D02*
X128575346Y-106622735D01*
X128575346Y-106622735D02*
X128461060Y-106660830D01*
X128461060Y-106660830D02*
X128384870Y-106698925D01*
X128384870Y-106698925D02*
X128270584Y-106775116D01*
X128270584Y-106775116D02*
X128232489Y-106813211D01*
D11*
X124964000Y-69971000D02*
X131714000Y-69971000D01*
X131714000Y-76721000D01*
X124964000Y-76721000D01*
X124964000Y-69971000D01*
X172714000Y-117721000D02*
X179464000Y-117721000D01*
X179464000Y-124471000D01*
X172714000Y-124471000D01*
X172714000Y-117721000D01*
X124964000Y-117721000D02*
X131714000Y-117721000D01*
X131714000Y-124471000D01*
X124964000Y-124471000D01*
X124964000Y-117721000D01*
X172714000Y-69971000D02*
X179464000Y-69971000D01*
X179464000Y-76721000D01*
X172714000Y-76721000D01*
X172714000Y-69971000D01*
D10*
X126514820Y-85827407D02*
X125714820Y-85827407D01*
X126095772Y-85827407D02*
X126095772Y-85370264D01*
X126514820Y-85370264D02*
X125714820Y-85370264D01*
X126514820Y-84875027D02*
X126476725Y-84951217D01*
X126476725Y-84951217D02*
X126438629Y-84989312D01*
X126438629Y-84989312D02*
X126362439Y-85027408D01*
X126362439Y-85027408D02*
X126133867Y-85027408D01*
X126133867Y-85027408D02*
X126057677Y-84989312D01*
X126057677Y-84989312D02*
X126019582Y-84951217D01*
X126019582Y-84951217D02*
X125981486Y-84875027D01*
X125981486Y-84875027D02*
X125981486Y-84760741D01*
X125981486Y-84760741D02*
X126019582Y-84684550D01*
X126019582Y-84684550D02*
X126057677Y-84646455D01*
X126057677Y-84646455D02*
X126133867Y-84608360D01*
X126133867Y-84608360D02*
X126362439Y-84608360D01*
X126362439Y-84608360D02*
X126438629Y-84646455D01*
X126438629Y-84646455D02*
X126476725Y-84684550D01*
X126476725Y-84684550D02*
X126514820Y-84760741D01*
X126514820Y-84760741D02*
X126514820Y-84875027D01*
X126514820Y-84151217D02*
X126476725Y-84227407D01*
X126476725Y-84227407D02*
X126400534Y-84265502D01*
X126400534Y-84265502D02*
X125714820Y-84265502D01*
X126514820Y-83732169D02*
X126476725Y-83808359D01*
X126476725Y-83808359D02*
X126438629Y-83846454D01*
X126438629Y-83846454D02*
X126362439Y-83884550D01*
X126362439Y-83884550D02*
X126133867Y-83884550D01*
X126133867Y-83884550D02*
X126057677Y-83846454D01*
X126057677Y-83846454D02*
X126019582Y-83808359D01*
X126019582Y-83808359D02*
X125981486Y-83732169D01*
X125981486Y-83732169D02*
X125981486Y-83617883D01*
X125981486Y-83617883D02*
X126019582Y-83541692D01*
X126019582Y-83541692D02*
X126057677Y-83503597D01*
X126057677Y-83503597D02*
X126133867Y-83465502D01*
X126133867Y-83465502D02*
X126362439Y-83465502D01*
X126362439Y-83465502D02*
X126438629Y-83503597D01*
X126438629Y-83503597D02*
X126476725Y-83541692D01*
X126476725Y-83541692D02*
X126514820Y-83617883D01*
X126514820Y-83617883D02*
X126514820Y-83732169D01*
X126476725Y-82779787D02*
X126514820Y-82855978D01*
X126514820Y-82855978D02*
X126514820Y-83008359D01*
X126514820Y-83008359D02*
X126476725Y-83084549D01*
X126476725Y-83084549D02*
X126438629Y-83122644D01*
X126438629Y-83122644D02*
X126362439Y-83160740D01*
X126362439Y-83160740D02*
X126133867Y-83160740D01*
X126133867Y-83160740D02*
X126057677Y-83122644D01*
X126057677Y-83122644D02*
X126019582Y-83084549D01*
X126019582Y-83084549D02*
X125981486Y-83008359D01*
X125981486Y-83008359D02*
X125981486Y-82855978D01*
X125981486Y-82855978D02*
X126019582Y-82779787D01*
X125981486Y-82094073D02*
X126514820Y-82094073D01*
X125981486Y-82436930D02*
X126400534Y-82436930D01*
X126400534Y-82436930D02*
X126476725Y-82398835D01*
X126476725Y-82398835D02*
X126514820Y-82322645D01*
X126514820Y-82322645D02*
X126514820Y-82208359D01*
X126514820Y-82208359D02*
X126476725Y-82132168D01*
X126476725Y-82132168D02*
X126438629Y-82094073D01*
X126514820Y-81713120D02*
X125714820Y-81713120D01*
X126019582Y-81713120D02*
X125981486Y-81636930D01*
X125981486Y-81636930D02*
X125981486Y-81484549D01*
X125981486Y-81484549D02*
X126019582Y-81408358D01*
X126019582Y-81408358D02*
X126057677Y-81370263D01*
X126057677Y-81370263D02*
X126133867Y-81332168D01*
X126133867Y-81332168D02*
X126362439Y-81332168D01*
X126362439Y-81332168D02*
X126438629Y-81370263D01*
X126438629Y-81370263D02*
X126476725Y-81408358D01*
X126476725Y-81408358D02*
X126514820Y-81484549D01*
X126514820Y-81484549D02*
X126514820Y-81636930D01*
X126514820Y-81636930D02*
X126476725Y-81713120D01*
X126476725Y-80684548D02*
X126514820Y-80760739D01*
X126514820Y-80760739D02*
X126514820Y-80913120D01*
X126514820Y-80913120D02*
X126476725Y-80989310D01*
X126476725Y-80989310D02*
X126400534Y-81027406D01*
X126400534Y-81027406D02*
X126095772Y-81027406D01*
X126095772Y-81027406D02*
X126019582Y-80989310D01*
X126019582Y-80989310D02*
X125981486Y-80913120D01*
X125981486Y-80913120D02*
X125981486Y-80760739D01*
X125981486Y-80760739D02*
X126019582Y-80684548D01*
X126019582Y-80684548D02*
X126095772Y-80646453D01*
X126095772Y-80646453D02*
X126171963Y-80646453D01*
X126171963Y-80646453D02*
X126248153Y-81027406D01*
X125981486Y-79770263D02*
X126514820Y-79579787D01*
X126514820Y-79579787D02*
X125981486Y-79389310D01*
X126514820Y-78665501D02*
X126514820Y-79122644D01*
X126514820Y-78894072D02*
X125714820Y-78894072D01*
X125714820Y-78894072D02*
X125829105Y-78970263D01*
X125829105Y-78970263D02*
X125905296Y-79046453D01*
X125905296Y-79046453D02*
X125943391Y-79122644D01*
X126438629Y-78322643D02*
X126476725Y-78284548D01*
X126476725Y-78284548D02*
X126514820Y-78322643D01*
X126514820Y-78322643D02*
X126476725Y-78360739D01*
X126476725Y-78360739D02*
X126438629Y-78322643D01*
X126438629Y-78322643D02*
X126514820Y-78322643D01*
X125714820Y-77789310D02*
X125714820Y-77713120D01*
X125714820Y-77713120D02*
X125752915Y-77636929D01*
X125752915Y-77636929D02*
X125791010Y-77598834D01*
X125791010Y-77598834D02*
X125867201Y-77560739D01*
X125867201Y-77560739D02*
X126019582Y-77522644D01*
X126019582Y-77522644D02*
X126210058Y-77522644D01*
X126210058Y-77522644D02*
X126362439Y-77560739D01*
X126362439Y-77560739D02*
X126438629Y-77598834D01*
X126438629Y-77598834D02*
X126476725Y-77636929D01*
X126476725Y-77636929D02*
X126514820Y-77713120D01*
X126514820Y-77713120D02*
X126514820Y-77789310D01*
X126514820Y-77789310D02*
X126476725Y-77865501D01*
X126476725Y-77865501D02*
X126438629Y-77903596D01*
X126438629Y-77903596D02*
X126362439Y-77941691D01*
X126362439Y-77941691D02*
X126210058Y-77979787D01*
X126210058Y-77979787D02*
X126019582Y-77979787D01*
X126019582Y-77979787D02*
X125867201Y-77941691D01*
X125867201Y-77941691D02*
X125791010Y-77903596D01*
X125791010Y-77903596D02*
X125752915Y-77865501D01*
X125752915Y-77865501D02*
X125714820Y-77789310D01*
X127383727Y-90589314D02*
X127421822Y-90475028D01*
X127421822Y-90475028D02*
X127459918Y-90436933D01*
X127459918Y-90436933D02*
X127536108Y-90398837D01*
X127536108Y-90398837D02*
X127650394Y-90398837D01*
X127650394Y-90398837D02*
X127726584Y-90436933D01*
X127726584Y-90436933D02*
X127764680Y-90475028D01*
X127764680Y-90475028D02*
X127802775Y-90551218D01*
X127802775Y-90551218D02*
X127802775Y-90855980D01*
X127802775Y-90855980D02*
X127002775Y-90855980D01*
X127002775Y-90855980D02*
X127002775Y-90589314D01*
X127002775Y-90589314D02*
X127040870Y-90513123D01*
X127040870Y-90513123D02*
X127078965Y-90475028D01*
X127078965Y-90475028D02*
X127155156Y-90436933D01*
X127155156Y-90436933D02*
X127231346Y-90436933D01*
X127231346Y-90436933D02*
X127307537Y-90475028D01*
X127307537Y-90475028D02*
X127345632Y-90513123D01*
X127345632Y-90513123D02*
X127383727Y-90589314D01*
X127383727Y-90589314D02*
X127383727Y-90855980D01*
X127269441Y-90132171D02*
X127802775Y-89941695D01*
X127269441Y-89751218D02*
X127802775Y-89941695D01*
X127802775Y-89941695D02*
X127993251Y-90017885D01*
X127993251Y-90017885D02*
X128031346Y-90055980D01*
X128031346Y-90055980D02*
X128069441Y-90132171D01*
X127002775Y-88608361D02*
X127574203Y-88608361D01*
X127574203Y-88608361D02*
X127688489Y-88646456D01*
X127688489Y-88646456D02*
X127764680Y-88722647D01*
X127764680Y-88722647D02*
X127802775Y-88836932D01*
X127802775Y-88836932D02*
X127802775Y-88913123D01*
X127802775Y-87884551D02*
X127383727Y-87884551D01*
X127383727Y-87884551D02*
X127307537Y-87922646D01*
X127307537Y-87922646D02*
X127269441Y-87998837D01*
X127269441Y-87998837D02*
X127269441Y-88151218D01*
X127269441Y-88151218D02*
X127307537Y-88227408D01*
X127764680Y-87884551D02*
X127802775Y-87960742D01*
X127802775Y-87960742D02*
X127802775Y-88151218D01*
X127802775Y-88151218D02*
X127764680Y-88227408D01*
X127764680Y-88227408D02*
X127688489Y-88265504D01*
X127688489Y-88265504D02*
X127612299Y-88265504D01*
X127612299Y-88265504D02*
X127536108Y-88227408D01*
X127536108Y-88227408D02*
X127498013Y-88151218D01*
X127498013Y-88151218D02*
X127498013Y-87960742D01*
X127498013Y-87960742D02*
X127459918Y-87884551D01*
X127269441Y-87579789D02*
X127802775Y-87389313D01*
X127269441Y-87198836D02*
X127802775Y-87389313D01*
X127802775Y-87389313D02*
X127993251Y-87465503D01*
X127993251Y-87465503D02*
X128031346Y-87503598D01*
X128031346Y-87503598D02*
X128069441Y-87579789D01*
X127802775Y-86551217D02*
X127002775Y-86551217D01*
X127764680Y-86551217D02*
X127802775Y-86627408D01*
X127802775Y-86627408D02*
X127802775Y-86779789D01*
X127802775Y-86779789D02*
X127764680Y-86855979D01*
X127764680Y-86855979D02*
X127726584Y-86894074D01*
X127726584Y-86894074D02*
X127650394Y-86932170D01*
X127650394Y-86932170D02*
X127421822Y-86932170D01*
X127421822Y-86932170D02*
X127345632Y-86894074D01*
X127345632Y-86894074D02*
X127307537Y-86855979D01*
X127307537Y-86855979D02*
X127269441Y-86779789D01*
X127269441Y-86779789D02*
X127269441Y-86627408D01*
X127269441Y-86627408D02*
X127307537Y-86551217D01*
X127764680Y-85865502D02*
X127802775Y-85941693D01*
X127802775Y-85941693D02*
X127802775Y-86094074D01*
X127802775Y-86094074D02*
X127764680Y-86170264D01*
X127764680Y-86170264D02*
X127688489Y-86208360D01*
X127688489Y-86208360D02*
X127383727Y-86208360D01*
X127383727Y-86208360D02*
X127307537Y-86170264D01*
X127307537Y-86170264D02*
X127269441Y-86094074D01*
X127269441Y-86094074D02*
X127269441Y-85941693D01*
X127269441Y-85941693D02*
X127307537Y-85865502D01*
X127307537Y-85865502D02*
X127383727Y-85827407D01*
X127383727Y-85827407D02*
X127459918Y-85827407D01*
X127459918Y-85827407D02*
X127536108Y-86208360D01*
X127269441Y-85484550D02*
X127802775Y-85484550D01*
X127345632Y-85484550D02*
X127307537Y-85446455D01*
X127307537Y-85446455D02*
X127269441Y-85370265D01*
X127269441Y-85370265D02*
X127269441Y-85255979D01*
X127269441Y-85255979D02*
X127307537Y-85179788D01*
X127307537Y-85179788D02*
X127383727Y-85141693D01*
X127383727Y-85141693D02*
X127802775Y-85141693D01*
X127764680Y-84722645D02*
X127802775Y-84722645D01*
X127802775Y-84722645D02*
X127878965Y-84760740D01*
X127878965Y-84760740D02*
X127917060Y-84798836D01*
X127802775Y-83351217D02*
X127802775Y-83808360D01*
X127802775Y-83579788D02*
X127002775Y-83579788D01*
X127002775Y-83579788D02*
X127117060Y-83655979D01*
X127117060Y-83655979D02*
X127193251Y-83732169D01*
X127193251Y-83732169D02*
X127231346Y-83808360D01*
X127002775Y-83084550D02*
X127002775Y-82551216D01*
X127002775Y-82551216D02*
X127802775Y-82894074D01*
X127764680Y-82208359D02*
X127802775Y-82208359D01*
X127802775Y-82208359D02*
X127878965Y-82246454D01*
X127878965Y-82246454D02*
X127917060Y-82284550D01*
X127383727Y-80989312D02*
X127421822Y-80875026D01*
X127421822Y-80875026D02*
X127459918Y-80836931D01*
X127459918Y-80836931D02*
X127536108Y-80798835D01*
X127536108Y-80798835D02*
X127650394Y-80798835D01*
X127650394Y-80798835D02*
X127726584Y-80836931D01*
X127726584Y-80836931D02*
X127764680Y-80875026D01*
X127764680Y-80875026D02*
X127802775Y-80951216D01*
X127802775Y-80951216D02*
X127802775Y-81255978D01*
X127802775Y-81255978D02*
X127002775Y-81255978D01*
X127002775Y-81255978D02*
X127002775Y-80989312D01*
X127002775Y-80989312D02*
X127040870Y-80913121D01*
X127040870Y-80913121D02*
X127078965Y-80875026D01*
X127078965Y-80875026D02*
X127155156Y-80836931D01*
X127155156Y-80836931D02*
X127231346Y-80836931D01*
X127231346Y-80836931D02*
X127307537Y-80875026D01*
X127307537Y-80875026D02*
X127345632Y-80913121D01*
X127345632Y-80913121D02*
X127383727Y-80989312D01*
X127383727Y-80989312D02*
X127383727Y-81255978D01*
X127802775Y-80341693D02*
X127764680Y-80417883D01*
X127764680Y-80417883D02*
X127726584Y-80455978D01*
X127726584Y-80455978D02*
X127650394Y-80494074D01*
X127650394Y-80494074D02*
X127421822Y-80494074D01*
X127421822Y-80494074D02*
X127345632Y-80455978D01*
X127345632Y-80455978D02*
X127307537Y-80417883D01*
X127307537Y-80417883D02*
X127269441Y-80341693D01*
X127269441Y-80341693D02*
X127269441Y-80227407D01*
X127269441Y-80227407D02*
X127307537Y-80151216D01*
X127307537Y-80151216D02*
X127345632Y-80113121D01*
X127345632Y-80113121D02*
X127421822Y-80075026D01*
X127421822Y-80075026D02*
X127650394Y-80075026D01*
X127650394Y-80075026D02*
X127726584Y-80113121D01*
X127726584Y-80113121D02*
X127764680Y-80151216D01*
X127764680Y-80151216D02*
X127802775Y-80227407D01*
X127802775Y-80227407D02*
X127802775Y-80341693D01*
X127764680Y-79770264D02*
X127802775Y-79694073D01*
X127802775Y-79694073D02*
X127802775Y-79541692D01*
X127802775Y-79541692D02*
X127764680Y-79465502D01*
X127764680Y-79465502D02*
X127688489Y-79427406D01*
X127688489Y-79427406D02*
X127650394Y-79427406D01*
X127650394Y-79427406D02*
X127574203Y-79465502D01*
X127574203Y-79465502D02*
X127536108Y-79541692D01*
X127536108Y-79541692D02*
X127536108Y-79655978D01*
X127536108Y-79655978D02*
X127498013Y-79732168D01*
X127498013Y-79732168D02*
X127421822Y-79770264D01*
X127421822Y-79770264D02*
X127383727Y-79770264D01*
X127383727Y-79770264D02*
X127307537Y-79732168D01*
X127307537Y-79732168D02*
X127269441Y-79655978D01*
X127269441Y-79655978D02*
X127269441Y-79541692D01*
X127269441Y-79541692D02*
X127307537Y-79465502D01*
X127269441Y-79198835D02*
X127269441Y-78894073D01*
X127002775Y-79084549D02*
X127688489Y-79084549D01*
X127688489Y-79084549D02*
X127764680Y-79046454D01*
X127764680Y-79046454D02*
X127802775Y-78970264D01*
X127802775Y-78970264D02*
X127802775Y-78894073D01*
X127802775Y-78513121D02*
X127764680Y-78589311D01*
X127764680Y-78589311D02*
X127726584Y-78627406D01*
X127726584Y-78627406D02*
X127650394Y-78665502D01*
X127650394Y-78665502D02*
X127421822Y-78665502D01*
X127421822Y-78665502D02*
X127345632Y-78627406D01*
X127345632Y-78627406D02*
X127307537Y-78589311D01*
X127307537Y-78589311D02*
X127269441Y-78513121D01*
X127269441Y-78513121D02*
X127269441Y-78398835D01*
X127269441Y-78398835D02*
X127307537Y-78322644D01*
X127307537Y-78322644D02*
X127345632Y-78284549D01*
X127345632Y-78284549D02*
X127421822Y-78246454D01*
X127421822Y-78246454D02*
X127650394Y-78246454D01*
X127650394Y-78246454D02*
X127726584Y-78284549D01*
X127726584Y-78284549D02*
X127764680Y-78322644D01*
X127764680Y-78322644D02*
X127802775Y-78398835D01*
X127802775Y-78398835D02*
X127802775Y-78513121D01*
X127269441Y-77903596D02*
X127802775Y-77903596D01*
X127345632Y-77903596D02*
X127307537Y-77865501D01*
X127307537Y-77865501D02*
X127269441Y-77789311D01*
X127269441Y-77789311D02*
X127269441Y-77675025D01*
X127269441Y-77675025D02*
X127307537Y-77598834D01*
X127307537Y-77598834D02*
X127383727Y-77560739D01*
X127383727Y-77560739D02*
X127802775Y-77560739D01*
D12*
X167181666Y-79612819D02*
X167181666Y-80327104D01*
X167181666Y-80327104D02*
X167134047Y-80469961D01*
X167134047Y-80469961D02*
X167038809Y-80565200D01*
X167038809Y-80565200D02*
X166895952Y-80612819D01*
X166895952Y-80612819D02*
X166800714Y-80612819D01*
X167610238Y-79708057D02*
X167657857Y-79660438D01*
X167657857Y-79660438D02*
X167753095Y-79612819D01*
X167753095Y-79612819D02*
X167991190Y-79612819D01*
X167991190Y-79612819D02*
X168086428Y-79660438D01*
X168086428Y-79660438D02*
X168134047Y-79708057D01*
X168134047Y-79708057D02*
X168181666Y-79803295D01*
X168181666Y-79803295D02*
X168181666Y-79898533D01*
X168181666Y-79898533D02*
X168134047Y-80041390D01*
X168134047Y-80041390D02*
X167562619Y-80612819D01*
X167562619Y-80612819D02*
X168181666Y-80612819D01*
X148175705Y-119759019D02*
X148175705Y-120568542D01*
X148175705Y-120568542D02*
X148223324Y-120663780D01*
X148223324Y-120663780D02*
X148270943Y-120711400D01*
X148270943Y-120711400D02*
X148366181Y-120759019D01*
X148366181Y-120759019D02*
X148556657Y-120759019D01*
X148556657Y-120759019D02*
X148651895Y-120711400D01*
X148651895Y-120711400D02*
X148699514Y-120663780D01*
X148699514Y-120663780D02*
X148747133Y-120568542D01*
X148747133Y-120568542D02*
X148747133Y-119759019D01*
X149747133Y-120759019D02*
X149175705Y-120759019D01*
X149461419Y-120759019D02*
X149461419Y-119759019D01*
X149461419Y-119759019D02*
X149366181Y-119901876D01*
X149366181Y-119901876D02*
X149270943Y-119997114D01*
X149270943Y-119997114D02*
X149175705Y-120044733D01*
X150699514Y-120759019D02*
X150128086Y-120759019D01*
X150413800Y-120759019D02*
X150413800Y-119759019D01*
X150413800Y-119759019D02*
X150318562Y-119901876D01*
X150318562Y-119901876D02*
X150223324Y-119997114D01*
X150223324Y-119997114D02*
X150128086Y-120044733D01*
X163764895Y-95063619D02*
X163764895Y-95873142D01*
X163764895Y-95873142D02*
X163812514Y-95968380D01*
X163812514Y-95968380D02*
X163860133Y-96016000D01*
X163860133Y-96016000D02*
X163955371Y-96063619D01*
X163955371Y-96063619D02*
X164145847Y-96063619D01*
X164145847Y-96063619D02*
X164241085Y-96016000D01*
X164241085Y-96016000D02*
X164288704Y-95968380D01*
X164288704Y-95968380D02*
X164336323Y-95873142D01*
X164336323Y-95873142D02*
X164336323Y-95063619D01*
X165288704Y-95063619D02*
X164812514Y-95063619D01*
X164812514Y-95063619D02*
X164764895Y-95539809D01*
X164764895Y-95539809D02*
X164812514Y-95492190D01*
X164812514Y-95492190D02*
X164907752Y-95444571D01*
X164907752Y-95444571D02*
X165145847Y-95444571D01*
X165145847Y-95444571D02*
X165241085Y-95492190D01*
X165241085Y-95492190D02*
X165288704Y-95539809D01*
X165288704Y-95539809D02*
X165336323Y-95635047D01*
X165336323Y-95635047D02*
X165336323Y-95873142D01*
X165336323Y-95873142D02*
X165288704Y-95968380D01*
X165288704Y-95968380D02*
X165241085Y-96016000D01*
X165241085Y-96016000D02*
X165145847Y-96063619D01*
X165145847Y-96063619D02*
X164907752Y-96063619D01*
X164907752Y-96063619D02*
X164812514Y-96016000D01*
X164812514Y-96016000D02*
X164764895Y-95968380D01*
X177846819Y-85064166D02*
X177370628Y-85397499D01*
X177846819Y-85635594D02*
X176846819Y-85635594D01*
X176846819Y-85635594D02*
X176846819Y-85254642D01*
X176846819Y-85254642D02*
X176894438Y-85159404D01*
X176894438Y-85159404D02*
X176942057Y-85111785D01*
X176942057Y-85111785D02*
X177037295Y-85064166D01*
X177037295Y-85064166D02*
X177180152Y-85064166D01*
X177180152Y-85064166D02*
X177275390Y-85111785D01*
X177275390Y-85111785D02*
X177323009Y-85159404D01*
X177323009Y-85159404D02*
X177370628Y-85254642D01*
X177370628Y-85254642D02*
X177370628Y-85635594D01*
X176942057Y-84683213D02*
X176894438Y-84635594D01*
X176894438Y-84635594D02*
X176846819Y-84540356D01*
X176846819Y-84540356D02*
X176846819Y-84302261D01*
X176846819Y-84302261D02*
X176894438Y-84207023D01*
X176894438Y-84207023D02*
X176942057Y-84159404D01*
X176942057Y-84159404D02*
X177037295Y-84111785D01*
X177037295Y-84111785D02*
X177132533Y-84111785D01*
X177132533Y-84111785D02*
X177275390Y-84159404D01*
X177275390Y-84159404D02*
X177846819Y-84730832D01*
X177846819Y-84730832D02*
X177846819Y-84111785D01*
X152671580Y-87614666D02*
X152719200Y-87662285D01*
X152719200Y-87662285D02*
X152766819Y-87805142D01*
X152766819Y-87805142D02*
X152766819Y-87900380D01*
X152766819Y-87900380D02*
X152719200Y-88043237D01*
X152719200Y-88043237D02*
X152623961Y-88138475D01*
X152623961Y-88138475D02*
X152528723Y-88186094D01*
X152528723Y-88186094D02*
X152338247Y-88233713D01*
X152338247Y-88233713D02*
X152195390Y-88233713D01*
X152195390Y-88233713D02*
X152004914Y-88186094D01*
X152004914Y-88186094D02*
X151909676Y-88138475D01*
X151909676Y-88138475D02*
X151814438Y-88043237D01*
X151814438Y-88043237D02*
X151766819Y-87900380D01*
X151766819Y-87900380D02*
X151766819Y-87805142D01*
X151766819Y-87805142D02*
X151814438Y-87662285D01*
X151814438Y-87662285D02*
X151862057Y-87614666D01*
X152766819Y-87138475D02*
X152766819Y-86947999D01*
X152766819Y-86947999D02*
X152719200Y-86852761D01*
X152719200Y-86852761D02*
X152671580Y-86805142D01*
X152671580Y-86805142D02*
X152528723Y-86709904D01*
X152528723Y-86709904D02*
X152338247Y-86662285D01*
X152338247Y-86662285D02*
X151957295Y-86662285D01*
X151957295Y-86662285D02*
X151862057Y-86709904D01*
X151862057Y-86709904D02*
X151814438Y-86757523D01*
X151814438Y-86757523D02*
X151766819Y-86852761D01*
X151766819Y-86852761D02*
X151766819Y-87043237D01*
X151766819Y-87043237D02*
X151814438Y-87138475D01*
X151814438Y-87138475D02*
X151862057Y-87186094D01*
X151862057Y-87186094D02*
X151957295Y-87233713D01*
X151957295Y-87233713D02*
X152195390Y-87233713D01*
X152195390Y-87233713D02*
X152290628Y-87186094D01*
X152290628Y-87186094D02*
X152338247Y-87138475D01*
X152338247Y-87138475D02*
X152385866Y-87043237D01*
X152385866Y-87043237D02*
X152385866Y-86852761D01*
X152385866Y-86852761D02*
X152338247Y-86757523D01*
X152338247Y-86757523D02*
X152290628Y-86709904D01*
X152290628Y-86709904D02*
X152195390Y-86662285D01*
X163777095Y-75293819D02*
X163777095Y-76103342D01*
X163777095Y-76103342D02*
X163824714Y-76198580D01*
X163824714Y-76198580D02*
X163872333Y-76246200D01*
X163872333Y-76246200D02*
X163967571Y-76293819D01*
X163967571Y-76293819D02*
X164158047Y-76293819D01*
X164158047Y-76293819D02*
X164253285Y-76246200D01*
X164253285Y-76246200D02*
X164300904Y-76198580D01*
X164300904Y-76198580D02*
X164348523Y-76103342D01*
X164348523Y-76103342D02*
X164348523Y-75293819D01*
X165348523Y-76293819D02*
X164777095Y-76293819D01*
X165062809Y-76293819D02*
X165062809Y-75293819D01*
X165062809Y-75293819D02*
X164967571Y-75436676D01*
X164967571Y-75436676D02*
X164872333Y-75531914D01*
X164872333Y-75531914D02*
X164777095Y-75579533D01*
X168750580Y-121044857D02*
X168798200Y-121092476D01*
X168798200Y-121092476D02*
X168845819Y-121235333D01*
X168845819Y-121235333D02*
X168845819Y-121330571D01*
X168845819Y-121330571D02*
X168798200Y-121473428D01*
X168798200Y-121473428D02*
X168702961Y-121568666D01*
X168702961Y-121568666D02*
X168607723Y-121616285D01*
X168607723Y-121616285D02*
X168417247Y-121663904D01*
X168417247Y-121663904D02*
X168274390Y-121663904D01*
X168274390Y-121663904D02*
X168083914Y-121616285D01*
X168083914Y-121616285D02*
X167988676Y-121568666D01*
X167988676Y-121568666D02*
X167893438Y-121473428D01*
X167893438Y-121473428D02*
X167845819Y-121330571D01*
X167845819Y-121330571D02*
X167845819Y-121235333D01*
X167845819Y-121235333D02*
X167893438Y-121092476D01*
X167893438Y-121092476D02*
X167941057Y-121044857D01*
X167941057Y-120663904D02*
X167893438Y-120616285D01*
X167893438Y-120616285D02*
X167845819Y-120521047D01*
X167845819Y-120521047D02*
X167845819Y-120282952D01*
X167845819Y-120282952D02*
X167893438Y-120187714D01*
X167893438Y-120187714D02*
X167941057Y-120140095D01*
X167941057Y-120140095D02*
X168036295Y-120092476D01*
X168036295Y-120092476D02*
X168131533Y-120092476D01*
X168131533Y-120092476D02*
X168274390Y-120140095D01*
X168274390Y-120140095D02*
X168845819Y-120711523D01*
X168845819Y-120711523D02*
X168845819Y-120092476D01*
X168179152Y-119235333D02*
X168845819Y-119235333D01*
X167798200Y-119473428D02*
X168512485Y-119711523D01*
X168512485Y-119711523D02*
X168512485Y-119092476D01*
X161601580Y-72826857D02*
X161649200Y-72874476D01*
X161649200Y-72874476D02*
X161696819Y-73017333D01*
X161696819Y-73017333D02*
X161696819Y-73112571D01*
X161696819Y-73112571D02*
X161649200Y-73255428D01*
X161649200Y-73255428D02*
X161553961Y-73350666D01*
X161553961Y-73350666D02*
X161458723Y-73398285D01*
X161458723Y-73398285D02*
X161268247Y-73445904D01*
X161268247Y-73445904D02*
X161125390Y-73445904D01*
X161125390Y-73445904D02*
X160934914Y-73398285D01*
X160934914Y-73398285D02*
X160839676Y-73350666D01*
X160839676Y-73350666D02*
X160744438Y-73255428D01*
X160744438Y-73255428D02*
X160696819Y-73112571D01*
X160696819Y-73112571D02*
X160696819Y-73017333D01*
X160696819Y-73017333D02*
X160744438Y-72874476D01*
X160744438Y-72874476D02*
X160792057Y-72826857D01*
X160792057Y-72445904D02*
X160744438Y-72398285D01*
X160744438Y-72398285D02*
X160696819Y-72303047D01*
X160696819Y-72303047D02*
X160696819Y-72064952D01*
X160696819Y-72064952D02*
X160744438Y-71969714D01*
X160744438Y-71969714D02*
X160792057Y-71922095D01*
X160792057Y-71922095D02*
X160887295Y-71874476D01*
X160887295Y-71874476D02*
X160982533Y-71874476D01*
X160982533Y-71874476D02*
X161125390Y-71922095D01*
X161125390Y-71922095D02*
X161696819Y-72493523D01*
X161696819Y-72493523D02*
X161696819Y-71874476D01*
X160696819Y-71017333D02*
X160696819Y-71207809D01*
X160696819Y-71207809D02*
X160744438Y-71303047D01*
X160744438Y-71303047D02*
X160792057Y-71350666D01*
X160792057Y-71350666D02*
X160934914Y-71445904D01*
X160934914Y-71445904D02*
X161125390Y-71493523D01*
X161125390Y-71493523D02*
X161506342Y-71493523D01*
X161506342Y-71493523D02*
X161601580Y-71445904D01*
X161601580Y-71445904D02*
X161649200Y-71398285D01*
X161649200Y-71398285D02*
X161696819Y-71303047D01*
X161696819Y-71303047D02*
X161696819Y-71112571D01*
X161696819Y-71112571D02*
X161649200Y-71017333D01*
X161649200Y-71017333D02*
X161601580Y-70969714D01*
X161601580Y-70969714D02*
X161506342Y-70922095D01*
X161506342Y-70922095D02*
X161268247Y-70922095D01*
X161268247Y-70922095D02*
X161173009Y-70969714D01*
X161173009Y-70969714D02*
X161125390Y-71017333D01*
X161125390Y-71017333D02*
X161077771Y-71112571D01*
X161077771Y-71112571D02*
X161077771Y-71303047D01*
X161077771Y-71303047D02*
X161125390Y-71398285D01*
X161125390Y-71398285D02*
X161173009Y-71445904D01*
X161173009Y-71445904D02*
X161268247Y-71493523D01*
X180126580Y-110117857D02*
X180174200Y-110165476D01*
X180174200Y-110165476D02*
X180221819Y-110308333D01*
X180221819Y-110308333D02*
X180221819Y-110403571D01*
X180221819Y-110403571D02*
X180174200Y-110546428D01*
X180174200Y-110546428D02*
X180078961Y-110641666D01*
X180078961Y-110641666D02*
X179983723Y-110689285D01*
X179983723Y-110689285D02*
X179793247Y-110736904D01*
X179793247Y-110736904D02*
X179650390Y-110736904D01*
X179650390Y-110736904D02*
X179459914Y-110689285D01*
X179459914Y-110689285D02*
X179364676Y-110641666D01*
X179364676Y-110641666D02*
X179269438Y-110546428D01*
X179269438Y-110546428D02*
X179221819Y-110403571D01*
X179221819Y-110403571D02*
X179221819Y-110308333D01*
X179221819Y-110308333D02*
X179269438Y-110165476D01*
X179269438Y-110165476D02*
X179317057Y-110117857D01*
X180221819Y-109165476D02*
X180221819Y-109736904D01*
X180221819Y-109451190D02*
X179221819Y-109451190D01*
X179221819Y-109451190D02*
X179364676Y-109546428D01*
X179364676Y-109546428D02*
X179459914Y-109641666D01*
X179459914Y-109641666D02*
X179507533Y-109736904D01*
X180221819Y-108689285D02*
X180221819Y-108498809D01*
X180221819Y-108498809D02*
X180174200Y-108403571D01*
X180174200Y-108403571D02*
X180126580Y-108355952D01*
X180126580Y-108355952D02*
X179983723Y-108260714D01*
X179983723Y-108260714D02*
X179793247Y-108213095D01*
X179793247Y-108213095D02*
X179412295Y-108213095D01*
X179412295Y-108213095D02*
X179317057Y-108260714D01*
X179317057Y-108260714D02*
X179269438Y-108308333D01*
X179269438Y-108308333D02*
X179221819Y-108403571D01*
X179221819Y-108403571D02*
X179221819Y-108594047D01*
X179221819Y-108594047D02*
X179269438Y-108689285D01*
X179269438Y-108689285D02*
X179317057Y-108736904D01*
X179317057Y-108736904D02*
X179412295Y-108784523D01*
X179412295Y-108784523D02*
X179650390Y-108784523D01*
X179650390Y-108784523D02*
X179745628Y-108736904D01*
X179745628Y-108736904D02*
X179793247Y-108689285D01*
X179793247Y-108689285D02*
X179840866Y-108594047D01*
X179840866Y-108594047D02*
X179840866Y-108403571D01*
X179840866Y-108403571D02*
X179793247Y-108308333D01*
X179793247Y-108308333D02*
X179745628Y-108260714D01*
X179745628Y-108260714D02*
X179650390Y-108213095D01*
X180096580Y-105264857D02*
X180144200Y-105312476D01*
X180144200Y-105312476D02*
X180191819Y-105455333D01*
X180191819Y-105455333D02*
X180191819Y-105550571D01*
X180191819Y-105550571D02*
X180144200Y-105693428D01*
X180144200Y-105693428D02*
X180048961Y-105788666D01*
X180048961Y-105788666D02*
X179953723Y-105836285D01*
X179953723Y-105836285D02*
X179763247Y-105883904D01*
X179763247Y-105883904D02*
X179620390Y-105883904D01*
X179620390Y-105883904D02*
X179429914Y-105836285D01*
X179429914Y-105836285D02*
X179334676Y-105788666D01*
X179334676Y-105788666D02*
X179239438Y-105693428D01*
X179239438Y-105693428D02*
X179191819Y-105550571D01*
X179191819Y-105550571D02*
X179191819Y-105455333D01*
X179191819Y-105455333D02*
X179239438Y-105312476D01*
X179239438Y-105312476D02*
X179287057Y-105264857D01*
X180191819Y-104312476D02*
X180191819Y-104883904D01*
X180191819Y-104598190D02*
X179191819Y-104598190D01*
X179191819Y-104598190D02*
X179334676Y-104693428D01*
X179334676Y-104693428D02*
X179429914Y-104788666D01*
X179429914Y-104788666D02*
X179477533Y-104883904D01*
X179191819Y-103407714D02*
X179191819Y-103883904D01*
X179191819Y-103883904D02*
X179668009Y-103931523D01*
X179668009Y-103931523D02*
X179620390Y-103883904D01*
X179620390Y-103883904D02*
X179572771Y-103788666D01*
X179572771Y-103788666D02*
X179572771Y-103550571D01*
X179572771Y-103550571D02*
X179620390Y-103455333D01*
X179620390Y-103455333D02*
X179668009Y-103407714D01*
X179668009Y-103407714D02*
X179763247Y-103360095D01*
X179763247Y-103360095D02*
X180001342Y-103360095D01*
X180001342Y-103360095D02*
X180096580Y-103407714D01*
X180096580Y-103407714D02*
X180144200Y-103455333D01*
X180144200Y-103455333D02*
X180191819Y-103550571D01*
X180191819Y-103550571D02*
X180191819Y-103788666D01*
X180191819Y-103788666D02*
X180144200Y-103883904D01*
X180144200Y-103883904D02*
X180096580Y-103931523D01*
X180079580Y-95484857D02*
X180127200Y-95532476D01*
X180127200Y-95532476D02*
X180174819Y-95675333D01*
X180174819Y-95675333D02*
X180174819Y-95770571D01*
X180174819Y-95770571D02*
X180127200Y-95913428D01*
X180127200Y-95913428D02*
X180031961Y-96008666D01*
X180031961Y-96008666D02*
X179936723Y-96056285D01*
X179936723Y-96056285D02*
X179746247Y-96103904D01*
X179746247Y-96103904D02*
X179603390Y-96103904D01*
X179603390Y-96103904D02*
X179412914Y-96056285D01*
X179412914Y-96056285D02*
X179317676Y-96008666D01*
X179317676Y-96008666D02*
X179222438Y-95913428D01*
X179222438Y-95913428D02*
X179174819Y-95770571D01*
X179174819Y-95770571D02*
X179174819Y-95675333D01*
X179174819Y-95675333D02*
X179222438Y-95532476D01*
X179222438Y-95532476D02*
X179270057Y-95484857D01*
X180174819Y-94532476D02*
X180174819Y-95103904D01*
X180174819Y-94818190D02*
X179174819Y-94818190D01*
X179174819Y-94818190D02*
X179317676Y-94913428D01*
X179317676Y-94913428D02*
X179412914Y-95008666D01*
X179412914Y-95008666D02*
X179460533Y-95103904D01*
X179174819Y-93913428D02*
X179174819Y-93818190D01*
X179174819Y-93818190D02*
X179222438Y-93722952D01*
X179222438Y-93722952D02*
X179270057Y-93675333D01*
X179270057Y-93675333D02*
X179365295Y-93627714D01*
X179365295Y-93627714D02*
X179555771Y-93580095D01*
X179555771Y-93580095D02*
X179793866Y-93580095D01*
X179793866Y-93580095D02*
X179984342Y-93627714D01*
X179984342Y-93627714D02*
X180079580Y-93675333D01*
X180079580Y-93675333D02*
X180127200Y-93722952D01*
X180127200Y-93722952D02*
X180174819Y-93818190D01*
X180174819Y-93818190D02*
X180174819Y-93913428D01*
X180174819Y-93913428D02*
X180127200Y-94008666D01*
X180127200Y-94008666D02*
X180079580Y-94056285D01*
X180079580Y-94056285D02*
X179984342Y-94103904D01*
X179984342Y-94103904D02*
X179793866Y-94151523D01*
X179793866Y-94151523D02*
X179555771Y-94151523D01*
X179555771Y-94151523D02*
X179365295Y-94103904D01*
X179365295Y-94103904D02*
X179270057Y-94056285D01*
X179270057Y-94056285D02*
X179222438Y-94008666D01*
X179222438Y-94008666D02*
X179174819Y-93913428D01*
X170552819Y-76055357D02*
X170076628Y-76388690D01*
X170552819Y-76626785D02*
X169552819Y-76626785D01*
X169552819Y-76626785D02*
X169552819Y-76245833D01*
X169552819Y-76245833D02*
X169600438Y-76150595D01*
X169600438Y-76150595D02*
X169648057Y-76102976D01*
X169648057Y-76102976D02*
X169743295Y-76055357D01*
X169743295Y-76055357D02*
X169886152Y-76055357D01*
X169886152Y-76055357D02*
X169981390Y-76102976D01*
X169981390Y-76102976D02*
X170029009Y-76150595D01*
X170029009Y-76150595D02*
X170076628Y-76245833D01*
X170076628Y-76245833D02*
X170076628Y-76626785D01*
X170552819Y-75102976D02*
X170552819Y-75674404D01*
X170552819Y-75388690D02*
X169552819Y-75388690D01*
X169552819Y-75388690D02*
X169695676Y-75483928D01*
X169695676Y-75483928D02*
X169790914Y-75579166D01*
X169790914Y-75579166D02*
X169838533Y-75674404D01*
X170552819Y-74150595D02*
X170552819Y-74722023D01*
X170552819Y-74436309D02*
X169552819Y-74436309D01*
X169552819Y-74436309D02*
X169695676Y-74531547D01*
X169695676Y-74531547D02*
X169790914Y-74626785D01*
X169790914Y-74626785D02*
X169838533Y-74722023D01*
X173690580Y-121006857D02*
X173738200Y-121054476D01*
X173738200Y-121054476D02*
X173785819Y-121197333D01*
X173785819Y-121197333D02*
X173785819Y-121292571D01*
X173785819Y-121292571D02*
X173738200Y-121435428D01*
X173738200Y-121435428D02*
X173642961Y-121530666D01*
X173642961Y-121530666D02*
X173547723Y-121578285D01*
X173547723Y-121578285D02*
X173357247Y-121625904D01*
X173357247Y-121625904D02*
X173214390Y-121625904D01*
X173214390Y-121625904D02*
X173023914Y-121578285D01*
X173023914Y-121578285D02*
X172928676Y-121530666D01*
X172928676Y-121530666D02*
X172833438Y-121435428D01*
X172833438Y-121435428D02*
X172785819Y-121292571D01*
X172785819Y-121292571D02*
X172785819Y-121197333D01*
X172785819Y-121197333D02*
X172833438Y-121054476D01*
X172833438Y-121054476D02*
X172881057Y-121006857D01*
X172881057Y-120625904D02*
X172833438Y-120578285D01*
X172833438Y-120578285D02*
X172785819Y-120483047D01*
X172785819Y-120483047D02*
X172785819Y-120244952D01*
X172785819Y-120244952D02*
X172833438Y-120149714D01*
X172833438Y-120149714D02*
X172881057Y-120102095D01*
X172881057Y-120102095D02*
X172976295Y-120054476D01*
X172976295Y-120054476D02*
X173071533Y-120054476D01*
X173071533Y-120054476D02*
X173214390Y-120102095D01*
X173214390Y-120102095D02*
X173785819Y-120673523D01*
X173785819Y-120673523D02*
X173785819Y-120054476D01*
X172881057Y-119673523D02*
X172833438Y-119625904D01*
X172833438Y-119625904D02*
X172785819Y-119530666D01*
X172785819Y-119530666D02*
X172785819Y-119292571D01*
X172785819Y-119292571D02*
X172833438Y-119197333D01*
X172833438Y-119197333D02*
X172881057Y-119149714D01*
X172881057Y-119149714D02*
X172976295Y-119102095D01*
X172976295Y-119102095D02*
X173071533Y-119102095D01*
X173071533Y-119102095D02*
X173214390Y-119149714D01*
X173214390Y-119149714D02*
X173785819Y-119721142D01*
X173785819Y-119721142D02*
X173785819Y-119102095D01*
X163747895Y-100011619D02*
X163747895Y-100821142D01*
X163747895Y-100821142D02*
X163795514Y-100916380D01*
X163795514Y-100916380D02*
X163843133Y-100964000D01*
X163843133Y-100964000D02*
X163938371Y-101011619D01*
X163938371Y-101011619D02*
X164128847Y-101011619D01*
X164128847Y-101011619D02*
X164224085Y-100964000D01*
X164224085Y-100964000D02*
X164271704Y-100916380D01*
X164271704Y-100916380D02*
X164319323Y-100821142D01*
X164319323Y-100821142D02*
X164319323Y-100011619D01*
X165224085Y-100011619D02*
X165033609Y-100011619D01*
X165033609Y-100011619D02*
X164938371Y-100059238D01*
X164938371Y-100059238D02*
X164890752Y-100106857D01*
X164890752Y-100106857D02*
X164795514Y-100249714D01*
X164795514Y-100249714D02*
X164747895Y-100440190D01*
X164747895Y-100440190D02*
X164747895Y-100821142D01*
X164747895Y-100821142D02*
X164795514Y-100916380D01*
X164795514Y-100916380D02*
X164843133Y-100964000D01*
X164843133Y-100964000D02*
X164938371Y-101011619D01*
X164938371Y-101011619D02*
X165128847Y-101011619D01*
X165128847Y-101011619D02*
X165224085Y-100964000D01*
X165224085Y-100964000D02*
X165271704Y-100916380D01*
X165271704Y-100916380D02*
X165319323Y-100821142D01*
X165319323Y-100821142D02*
X165319323Y-100583047D01*
X165319323Y-100583047D02*
X165271704Y-100487809D01*
X165271704Y-100487809D02*
X165224085Y-100440190D01*
X165224085Y-100440190D02*
X165128847Y-100392571D01*
X165128847Y-100392571D02*
X164938371Y-100392571D01*
X164938371Y-100392571D02*
X164843133Y-100440190D01*
X164843133Y-100440190D02*
X164795514Y-100487809D01*
X164795514Y-100487809D02*
X164747895Y-100583047D01*
X180081580Y-100190857D02*
X180129200Y-100238476D01*
X180129200Y-100238476D02*
X180176819Y-100381333D01*
X180176819Y-100381333D02*
X180176819Y-100476571D01*
X180176819Y-100476571D02*
X180129200Y-100619428D01*
X180129200Y-100619428D02*
X180033961Y-100714666D01*
X180033961Y-100714666D02*
X179938723Y-100762285D01*
X179938723Y-100762285D02*
X179748247Y-100809904D01*
X179748247Y-100809904D02*
X179605390Y-100809904D01*
X179605390Y-100809904D02*
X179414914Y-100762285D01*
X179414914Y-100762285D02*
X179319676Y-100714666D01*
X179319676Y-100714666D02*
X179224438Y-100619428D01*
X179224438Y-100619428D02*
X179176819Y-100476571D01*
X179176819Y-100476571D02*
X179176819Y-100381333D01*
X179176819Y-100381333D02*
X179224438Y-100238476D01*
X179224438Y-100238476D02*
X179272057Y-100190857D01*
X180176819Y-99238476D02*
X180176819Y-99809904D01*
X180176819Y-99524190D02*
X179176819Y-99524190D01*
X179176819Y-99524190D02*
X179319676Y-99619428D01*
X179319676Y-99619428D02*
X179414914Y-99714666D01*
X179414914Y-99714666D02*
X179462533Y-99809904D01*
X179176819Y-98905142D02*
X179176819Y-98286095D01*
X179176819Y-98286095D02*
X179557771Y-98619428D01*
X179557771Y-98619428D02*
X179557771Y-98476571D01*
X179557771Y-98476571D02*
X179605390Y-98381333D01*
X179605390Y-98381333D02*
X179653009Y-98333714D01*
X179653009Y-98333714D02*
X179748247Y-98286095D01*
X179748247Y-98286095D02*
X179986342Y-98286095D01*
X179986342Y-98286095D02*
X180081580Y-98333714D01*
X180081580Y-98333714D02*
X180129200Y-98381333D01*
X180129200Y-98381333D02*
X180176819Y-98476571D01*
X180176819Y-98476571D02*
X180176819Y-98762285D01*
X180176819Y-98762285D02*
X180129200Y-98857523D01*
X180129200Y-98857523D02*
X180081580Y-98905142D01*
X177783819Y-109650166D02*
X177307628Y-109983499D01*
X177783819Y-110221594D02*
X176783819Y-110221594D01*
X176783819Y-110221594D02*
X176783819Y-109840642D01*
X176783819Y-109840642D02*
X176831438Y-109745404D01*
X176831438Y-109745404D02*
X176879057Y-109697785D01*
X176879057Y-109697785D02*
X176974295Y-109650166D01*
X176974295Y-109650166D02*
X177117152Y-109650166D01*
X177117152Y-109650166D02*
X177212390Y-109697785D01*
X177212390Y-109697785D02*
X177260009Y-109745404D01*
X177260009Y-109745404D02*
X177307628Y-109840642D01*
X177307628Y-109840642D02*
X177307628Y-110221594D01*
X176783819Y-109316832D02*
X176783819Y-108650166D01*
X176783819Y-108650166D02*
X177783819Y-109078737D01*
X180074580Y-80078666D02*
X180122200Y-80126285D01*
X180122200Y-80126285D02*
X180169819Y-80269142D01*
X180169819Y-80269142D02*
X180169819Y-80364380D01*
X180169819Y-80364380D02*
X180122200Y-80507237D01*
X180122200Y-80507237D02*
X180026961Y-80602475D01*
X180026961Y-80602475D02*
X179931723Y-80650094D01*
X179931723Y-80650094D02*
X179741247Y-80697713D01*
X179741247Y-80697713D02*
X179598390Y-80697713D01*
X179598390Y-80697713D02*
X179407914Y-80650094D01*
X179407914Y-80650094D02*
X179312676Y-80602475D01*
X179312676Y-80602475D02*
X179217438Y-80507237D01*
X179217438Y-80507237D02*
X179169819Y-80364380D01*
X179169819Y-80364380D02*
X179169819Y-80269142D01*
X179169819Y-80269142D02*
X179217438Y-80126285D01*
X179217438Y-80126285D02*
X179265057Y-80078666D01*
X179265057Y-79697713D02*
X179217438Y-79650094D01*
X179217438Y-79650094D02*
X179169819Y-79554856D01*
X179169819Y-79554856D02*
X179169819Y-79316761D01*
X179169819Y-79316761D02*
X179217438Y-79221523D01*
X179217438Y-79221523D02*
X179265057Y-79173904D01*
X179265057Y-79173904D02*
X179360295Y-79126285D01*
X179360295Y-79126285D02*
X179455533Y-79126285D01*
X179455533Y-79126285D02*
X179598390Y-79173904D01*
X179598390Y-79173904D02*
X180169819Y-79745332D01*
X180169819Y-79745332D02*
X180169819Y-79126285D01*
X163731895Y-104947619D02*
X163731895Y-105757142D01*
X163731895Y-105757142D02*
X163779514Y-105852380D01*
X163779514Y-105852380D02*
X163827133Y-105900000D01*
X163827133Y-105900000D02*
X163922371Y-105947619D01*
X163922371Y-105947619D02*
X164112847Y-105947619D01*
X164112847Y-105947619D02*
X164208085Y-105900000D01*
X164208085Y-105900000D02*
X164255704Y-105852380D01*
X164255704Y-105852380D02*
X164303323Y-105757142D01*
X164303323Y-105757142D02*
X164303323Y-104947619D01*
X164684276Y-104947619D02*
X165350942Y-104947619D01*
X165350942Y-104947619D02*
X164922371Y-105947619D01*
X152671580Y-94860857D02*
X152719200Y-94908476D01*
X152719200Y-94908476D02*
X152766819Y-95051333D01*
X152766819Y-95051333D02*
X152766819Y-95146571D01*
X152766819Y-95146571D02*
X152719200Y-95289428D01*
X152719200Y-95289428D02*
X152623961Y-95384666D01*
X152623961Y-95384666D02*
X152528723Y-95432285D01*
X152528723Y-95432285D02*
X152338247Y-95479904D01*
X152338247Y-95479904D02*
X152195390Y-95479904D01*
X152195390Y-95479904D02*
X152004914Y-95432285D01*
X152004914Y-95432285D02*
X151909676Y-95384666D01*
X151909676Y-95384666D02*
X151814438Y-95289428D01*
X151814438Y-95289428D02*
X151766819Y-95146571D01*
X151766819Y-95146571D02*
X151766819Y-95051333D01*
X151766819Y-95051333D02*
X151814438Y-94908476D01*
X151814438Y-94908476D02*
X151862057Y-94860857D01*
X152766819Y-93908476D02*
X152766819Y-94479904D01*
X152766819Y-94194190D02*
X151766819Y-94194190D01*
X151766819Y-94194190D02*
X151909676Y-94289428D01*
X151909676Y-94289428D02*
X152004914Y-94384666D01*
X152004914Y-94384666D02*
X152052533Y-94479904D01*
X151862057Y-93527523D02*
X151814438Y-93479904D01*
X151814438Y-93479904D02*
X151766819Y-93384666D01*
X151766819Y-93384666D02*
X151766819Y-93146571D01*
X151766819Y-93146571D02*
X151814438Y-93051333D01*
X151814438Y-93051333D02*
X151862057Y-93003714D01*
X151862057Y-93003714D02*
X151957295Y-92956095D01*
X151957295Y-92956095D02*
X152052533Y-92956095D01*
X152052533Y-92956095D02*
X152195390Y-93003714D01*
X152195390Y-93003714D02*
X152766819Y-93575142D01*
X152766819Y-93575142D02*
X152766819Y-92956095D01*
X152672580Y-115202857D02*
X152720200Y-115250476D01*
X152720200Y-115250476D02*
X152767819Y-115393333D01*
X152767819Y-115393333D02*
X152767819Y-115488571D01*
X152767819Y-115488571D02*
X152720200Y-115631428D01*
X152720200Y-115631428D02*
X152624961Y-115726666D01*
X152624961Y-115726666D02*
X152529723Y-115774285D01*
X152529723Y-115774285D02*
X152339247Y-115821904D01*
X152339247Y-115821904D02*
X152196390Y-115821904D01*
X152196390Y-115821904D02*
X152005914Y-115774285D01*
X152005914Y-115774285D02*
X151910676Y-115726666D01*
X151910676Y-115726666D02*
X151815438Y-115631428D01*
X151815438Y-115631428D02*
X151767819Y-115488571D01*
X151767819Y-115488571D02*
X151767819Y-115393333D01*
X151767819Y-115393333D02*
X151815438Y-115250476D01*
X151815438Y-115250476D02*
X151863057Y-115202857D01*
X151863057Y-114821904D02*
X151815438Y-114774285D01*
X151815438Y-114774285D02*
X151767819Y-114679047D01*
X151767819Y-114679047D02*
X151767819Y-114440952D01*
X151767819Y-114440952D02*
X151815438Y-114345714D01*
X151815438Y-114345714D02*
X151863057Y-114298095D01*
X151863057Y-114298095D02*
X151958295Y-114250476D01*
X151958295Y-114250476D02*
X152053533Y-114250476D01*
X152053533Y-114250476D02*
X152196390Y-114298095D01*
X152196390Y-114298095D02*
X152767819Y-114869523D01*
X152767819Y-114869523D02*
X152767819Y-114250476D01*
X151767819Y-113917142D02*
X151767819Y-113298095D01*
X151767819Y-113298095D02*
X152148771Y-113631428D01*
X152148771Y-113631428D02*
X152148771Y-113488571D01*
X152148771Y-113488571D02*
X152196390Y-113393333D01*
X152196390Y-113393333D02*
X152244009Y-113345714D01*
X152244009Y-113345714D02*
X152339247Y-113298095D01*
X152339247Y-113298095D02*
X152577342Y-113298095D01*
X152577342Y-113298095D02*
X152672580Y-113345714D01*
X152672580Y-113345714D02*
X152720200Y-113393333D01*
X152720200Y-113393333D02*
X152767819Y-113488571D01*
X152767819Y-113488571D02*
X152767819Y-113774285D01*
X152767819Y-113774285D02*
X152720200Y-113869523D01*
X152720200Y-113869523D02*
X152672580Y-113917142D01*
X149066142Y-119373580D02*
X149018523Y-119421200D01*
X149018523Y-119421200D02*
X148875666Y-119468819D01*
X148875666Y-119468819D02*
X148780428Y-119468819D01*
X148780428Y-119468819D02*
X148637571Y-119421200D01*
X148637571Y-119421200D02*
X148542333Y-119325961D01*
X148542333Y-119325961D02*
X148494714Y-119230723D01*
X148494714Y-119230723D02*
X148447095Y-119040247D01*
X148447095Y-119040247D02*
X148447095Y-118897390D01*
X148447095Y-118897390D02*
X148494714Y-118706914D01*
X148494714Y-118706914D02*
X148542333Y-118611676D01*
X148542333Y-118611676D02*
X148637571Y-118516438D01*
X148637571Y-118516438D02*
X148780428Y-118468819D01*
X148780428Y-118468819D02*
X148875666Y-118468819D01*
X148875666Y-118468819D02*
X149018523Y-118516438D01*
X149018523Y-118516438D02*
X149066142Y-118564057D01*
X149447095Y-118564057D02*
X149494714Y-118516438D01*
X149494714Y-118516438D02*
X149589952Y-118468819D01*
X149589952Y-118468819D02*
X149828047Y-118468819D01*
X149828047Y-118468819D02*
X149923285Y-118516438D01*
X149923285Y-118516438D02*
X149970904Y-118564057D01*
X149970904Y-118564057D02*
X150018523Y-118659295D01*
X150018523Y-118659295D02*
X150018523Y-118754533D01*
X150018523Y-118754533D02*
X149970904Y-118897390D01*
X149970904Y-118897390D02*
X149399476Y-119468819D01*
X149399476Y-119468819D02*
X150018523Y-119468819D01*
X150637571Y-118468819D02*
X150732809Y-118468819D01*
X150732809Y-118468819D02*
X150828047Y-118516438D01*
X150828047Y-118516438D02*
X150875666Y-118564057D01*
X150875666Y-118564057D02*
X150923285Y-118659295D01*
X150923285Y-118659295D02*
X150970904Y-118849771D01*
X150970904Y-118849771D02*
X150970904Y-119087866D01*
X150970904Y-119087866D02*
X150923285Y-119278342D01*
X150923285Y-119278342D02*
X150875666Y-119373580D01*
X150875666Y-119373580D02*
X150828047Y-119421200D01*
X150828047Y-119421200D02*
X150732809Y-119468819D01*
X150732809Y-119468819D02*
X150637571Y-119468819D01*
X150637571Y-119468819D02*
X150542333Y-119421200D01*
X150542333Y-119421200D02*
X150494714Y-119373580D01*
X150494714Y-119373580D02*
X150447095Y-119278342D01*
X150447095Y-119278342D02*
X150399476Y-119087866D01*
X150399476Y-119087866D02*
X150399476Y-118849771D01*
X150399476Y-118849771D02*
X150447095Y-118659295D01*
X150447095Y-118659295D02*
X150494714Y-118564057D01*
X150494714Y-118564057D02*
X150542333Y-118516438D01*
X150542333Y-118516438D02*
X150637571Y-118468819D01*
X180137580Y-89951666D02*
X180185200Y-89999285D01*
X180185200Y-89999285D02*
X180232819Y-90142142D01*
X180232819Y-90142142D02*
X180232819Y-90237380D01*
X180232819Y-90237380D02*
X180185200Y-90380237D01*
X180185200Y-90380237D02*
X180089961Y-90475475D01*
X180089961Y-90475475D02*
X179994723Y-90523094D01*
X179994723Y-90523094D02*
X179804247Y-90570713D01*
X179804247Y-90570713D02*
X179661390Y-90570713D01*
X179661390Y-90570713D02*
X179470914Y-90523094D01*
X179470914Y-90523094D02*
X179375676Y-90475475D01*
X179375676Y-90475475D02*
X179280438Y-90380237D01*
X179280438Y-90380237D02*
X179232819Y-90237380D01*
X179232819Y-90237380D02*
X179232819Y-90142142D01*
X179232819Y-90142142D02*
X179280438Y-89999285D01*
X179280438Y-89999285D02*
X179328057Y-89951666D01*
X179232819Y-89618332D02*
X179232819Y-88951666D01*
X179232819Y-88951666D02*
X180232819Y-89380237D01*
X173818819Y-72671357D02*
X173342628Y-73004690D01*
X173818819Y-73242785D02*
X172818819Y-73242785D01*
X172818819Y-73242785D02*
X172818819Y-72861833D01*
X172818819Y-72861833D02*
X172866438Y-72766595D01*
X172866438Y-72766595D02*
X172914057Y-72718976D01*
X172914057Y-72718976D02*
X173009295Y-72671357D01*
X173009295Y-72671357D02*
X173152152Y-72671357D01*
X173152152Y-72671357D02*
X173247390Y-72718976D01*
X173247390Y-72718976D02*
X173295009Y-72766595D01*
X173295009Y-72766595D02*
X173342628Y-72861833D01*
X173342628Y-72861833D02*
X173342628Y-73242785D01*
X173818819Y-71718976D02*
X173818819Y-72290404D01*
X173818819Y-72004690D02*
X172818819Y-72004690D01*
X172818819Y-72004690D02*
X172961676Y-72099928D01*
X172961676Y-72099928D02*
X173056914Y-72195166D01*
X173056914Y-72195166D02*
X173104533Y-72290404D01*
X173152152Y-70861833D02*
X173818819Y-70861833D01*
X172771200Y-71099928D02*
X173485485Y-71338023D01*
X173485485Y-71338023D02*
X173485485Y-70718976D01*
X177798819Y-94991166D02*
X177322628Y-95324499D01*
X177798819Y-95562594D02*
X176798819Y-95562594D01*
X176798819Y-95562594D02*
X176798819Y-95181642D01*
X176798819Y-95181642D02*
X176846438Y-95086404D01*
X176846438Y-95086404D02*
X176894057Y-95038785D01*
X176894057Y-95038785D02*
X176989295Y-94991166D01*
X176989295Y-94991166D02*
X177132152Y-94991166D01*
X177132152Y-94991166D02*
X177227390Y-95038785D01*
X177227390Y-95038785D02*
X177275009Y-95086404D01*
X177275009Y-95086404D02*
X177322628Y-95181642D01*
X177322628Y-95181642D02*
X177322628Y-95562594D01*
X177132152Y-94134023D02*
X177798819Y-94134023D01*
X176751200Y-94372118D02*
X177465485Y-94610213D01*
X177465485Y-94610213D02*
X177465485Y-93991166D01*
X150310333Y-87433580D02*
X150262714Y-87481200D01*
X150262714Y-87481200D02*
X150119857Y-87528819D01*
X150119857Y-87528819D02*
X150024619Y-87528819D01*
X150024619Y-87528819D02*
X149881762Y-87481200D01*
X149881762Y-87481200D02*
X149786524Y-87385961D01*
X149786524Y-87385961D02*
X149738905Y-87290723D01*
X149738905Y-87290723D02*
X149691286Y-87100247D01*
X149691286Y-87100247D02*
X149691286Y-86957390D01*
X149691286Y-86957390D02*
X149738905Y-86766914D01*
X149738905Y-86766914D02*
X149786524Y-86671676D01*
X149786524Y-86671676D02*
X149881762Y-86576438D01*
X149881762Y-86576438D02*
X150024619Y-86528819D01*
X150024619Y-86528819D02*
X150119857Y-86528819D01*
X150119857Y-86528819D02*
X150262714Y-86576438D01*
X150262714Y-86576438D02*
X150310333Y-86624057D01*
X151215095Y-86528819D02*
X150738905Y-86528819D01*
X150738905Y-86528819D02*
X150691286Y-87005009D01*
X150691286Y-87005009D02*
X150738905Y-86957390D01*
X150738905Y-86957390D02*
X150834143Y-86909771D01*
X150834143Y-86909771D02*
X151072238Y-86909771D01*
X151072238Y-86909771D02*
X151167476Y-86957390D01*
X151167476Y-86957390D02*
X151215095Y-87005009D01*
X151215095Y-87005009D02*
X151262714Y-87100247D01*
X151262714Y-87100247D02*
X151262714Y-87338342D01*
X151262714Y-87338342D02*
X151215095Y-87433580D01*
X151215095Y-87433580D02*
X151167476Y-87481200D01*
X151167476Y-87481200D02*
X151072238Y-87528819D01*
X151072238Y-87528819D02*
X150834143Y-87528819D01*
X150834143Y-87528819D02*
X150738905Y-87481200D01*
X150738905Y-87481200D02*
X150691286Y-87433580D01*
X152668580Y-80838666D02*
X152716200Y-80886285D01*
X152716200Y-80886285D02*
X152763819Y-81029142D01*
X152763819Y-81029142D02*
X152763819Y-81124380D01*
X152763819Y-81124380D02*
X152716200Y-81267237D01*
X152716200Y-81267237D02*
X152620961Y-81362475D01*
X152620961Y-81362475D02*
X152525723Y-81410094D01*
X152525723Y-81410094D02*
X152335247Y-81457713D01*
X152335247Y-81457713D02*
X152192390Y-81457713D01*
X152192390Y-81457713D02*
X152001914Y-81410094D01*
X152001914Y-81410094D02*
X151906676Y-81362475D01*
X151906676Y-81362475D02*
X151811438Y-81267237D01*
X151811438Y-81267237D02*
X151763819Y-81124380D01*
X151763819Y-81124380D02*
X151763819Y-81029142D01*
X151763819Y-81029142D02*
X151811438Y-80886285D01*
X151811438Y-80886285D02*
X151859057Y-80838666D01*
X151763819Y-79981523D02*
X151763819Y-80171999D01*
X151763819Y-80171999D02*
X151811438Y-80267237D01*
X151811438Y-80267237D02*
X151859057Y-80314856D01*
X151859057Y-80314856D02*
X152001914Y-80410094D01*
X152001914Y-80410094D02*
X152192390Y-80457713D01*
X152192390Y-80457713D02*
X152573342Y-80457713D01*
X152573342Y-80457713D02*
X152668580Y-80410094D01*
X152668580Y-80410094D02*
X152716200Y-80362475D01*
X152716200Y-80362475D02*
X152763819Y-80267237D01*
X152763819Y-80267237D02*
X152763819Y-80076761D01*
X152763819Y-80076761D02*
X152716200Y-79981523D01*
X152716200Y-79981523D02*
X152668580Y-79933904D01*
X152668580Y-79933904D02*
X152573342Y-79886285D01*
X152573342Y-79886285D02*
X152335247Y-79886285D01*
X152335247Y-79886285D02*
X152240009Y-79933904D01*
X152240009Y-79933904D02*
X152192390Y-79981523D01*
X152192390Y-79981523D02*
X152144771Y-80076761D01*
X152144771Y-80076761D02*
X152144771Y-80267237D01*
X152144771Y-80267237D02*
X152192390Y-80362475D01*
X152192390Y-80362475D02*
X152240009Y-80410094D01*
X152240009Y-80410094D02*
X152335247Y-80457713D01*
X152671580Y-74052666D02*
X152719200Y-74100285D01*
X152719200Y-74100285D02*
X152766819Y-74243142D01*
X152766819Y-74243142D02*
X152766819Y-74338380D01*
X152766819Y-74338380D02*
X152719200Y-74481237D01*
X152719200Y-74481237D02*
X152623961Y-74576475D01*
X152623961Y-74576475D02*
X152528723Y-74624094D01*
X152528723Y-74624094D02*
X152338247Y-74671713D01*
X152338247Y-74671713D02*
X152195390Y-74671713D01*
X152195390Y-74671713D02*
X152004914Y-74624094D01*
X152004914Y-74624094D02*
X151909676Y-74576475D01*
X151909676Y-74576475D02*
X151814438Y-74481237D01*
X151814438Y-74481237D02*
X151766819Y-74338380D01*
X151766819Y-74338380D02*
X151766819Y-74243142D01*
X151766819Y-74243142D02*
X151814438Y-74100285D01*
X151814438Y-74100285D02*
X151862057Y-74052666D01*
X152766819Y-73100285D02*
X152766819Y-73671713D01*
X152766819Y-73385999D02*
X151766819Y-73385999D01*
X151766819Y-73385999D02*
X151909676Y-73481237D01*
X151909676Y-73481237D02*
X152004914Y-73576475D01*
X152004914Y-73576475D02*
X152052533Y-73671713D01*
X163786895Y-85184619D02*
X163786895Y-85994142D01*
X163786895Y-85994142D02*
X163834514Y-86089380D01*
X163834514Y-86089380D02*
X163882133Y-86137000D01*
X163882133Y-86137000D02*
X163977371Y-86184619D01*
X163977371Y-86184619D02*
X164167847Y-86184619D01*
X164167847Y-86184619D02*
X164263085Y-86137000D01*
X164263085Y-86137000D02*
X164310704Y-86089380D01*
X164310704Y-86089380D02*
X164358323Y-85994142D01*
X164358323Y-85994142D02*
X164358323Y-85184619D01*
X164739276Y-85184619D02*
X165358323Y-85184619D01*
X165358323Y-85184619D02*
X165024990Y-85565571D01*
X165024990Y-85565571D02*
X165167847Y-85565571D01*
X165167847Y-85565571D02*
X165263085Y-85613190D01*
X165263085Y-85613190D02*
X165310704Y-85660809D01*
X165310704Y-85660809D02*
X165358323Y-85756047D01*
X165358323Y-85756047D02*
X165358323Y-85994142D01*
X165358323Y-85994142D02*
X165310704Y-86089380D01*
X165310704Y-86089380D02*
X165263085Y-86137000D01*
X165263085Y-86137000D02*
X165167847Y-86184619D01*
X165167847Y-86184619D02*
X164882133Y-86184619D01*
X164882133Y-86184619D02*
X164786895Y-86137000D01*
X164786895Y-86137000D02*
X164739276Y-86089380D01*
X180121580Y-85078666D02*
X180169200Y-85126285D01*
X180169200Y-85126285D02*
X180216819Y-85269142D01*
X180216819Y-85269142D02*
X180216819Y-85364380D01*
X180216819Y-85364380D02*
X180169200Y-85507237D01*
X180169200Y-85507237D02*
X180073961Y-85602475D01*
X180073961Y-85602475D02*
X179978723Y-85650094D01*
X179978723Y-85650094D02*
X179788247Y-85697713D01*
X179788247Y-85697713D02*
X179645390Y-85697713D01*
X179645390Y-85697713D02*
X179454914Y-85650094D01*
X179454914Y-85650094D02*
X179359676Y-85602475D01*
X179359676Y-85602475D02*
X179264438Y-85507237D01*
X179264438Y-85507237D02*
X179216819Y-85364380D01*
X179216819Y-85364380D02*
X179216819Y-85269142D01*
X179216819Y-85269142D02*
X179264438Y-85126285D01*
X179264438Y-85126285D02*
X179312057Y-85078666D01*
X179550152Y-84221523D02*
X180216819Y-84221523D01*
X179169200Y-84459618D02*
X179883485Y-84697713D01*
X179883485Y-84697713D02*
X179883485Y-84078666D01*
X180105580Y-115123857D02*
X180153200Y-115171476D01*
X180153200Y-115171476D02*
X180200819Y-115314333D01*
X180200819Y-115314333D02*
X180200819Y-115409571D01*
X180200819Y-115409571D02*
X180153200Y-115552428D01*
X180153200Y-115552428D02*
X180057961Y-115647666D01*
X180057961Y-115647666D02*
X179962723Y-115695285D01*
X179962723Y-115695285D02*
X179772247Y-115742904D01*
X179772247Y-115742904D02*
X179629390Y-115742904D01*
X179629390Y-115742904D02*
X179438914Y-115695285D01*
X179438914Y-115695285D02*
X179343676Y-115647666D01*
X179343676Y-115647666D02*
X179248438Y-115552428D01*
X179248438Y-115552428D02*
X179200819Y-115409571D01*
X179200819Y-115409571D02*
X179200819Y-115314333D01*
X179200819Y-115314333D02*
X179248438Y-115171476D01*
X179248438Y-115171476D02*
X179296057Y-115123857D01*
X179296057Y-114742904D02*
X179248438Y-114695285D01*
X179248438Y-114695285D02*
X179200819Y-114600047D01*
X179200819Y-114600047D02*
X179200819Y-114361952D01*
X179200819Y-114361952D02*
X179248438Y-114266714D01*
X179248438Y-114266714D02*
X179296057Y-114219095D01*
X179296057Y-114219095D02*
X179391295Y-114171476D01*
X179391295Y-114171476D02*
X179486533Y-114171476D01*
X179486533Y-114171476D02*
X179629390Y-114219095D01*
X179629390Y-114219095D02*
X180200819Y-114790523D01*
X180200819Y-114790523D02*
X180200819Y-114171476D01*
X180200819Y-113219095D02*
X180200819Y-113790523D01*
X180200819Y-113504809D02*
X179200819Y-113504809D01*
X179200819Y-113504809D02*
X179343676Y-113600047D01*
X179343676Y-113600047D02*
X179438914Y-113695285D01*
X179438914Y-113695285D02*
X179486533Y-113790523D01*
X150301333Y-94131580D02*
X150253714Y-94179200D01*
X150253714Y-94179200D02*
X150110857Y-94226819D01*
X150110857Y-94226819D02*
X150015619Y-94226819D01*
X150015619Y-94226819D02*
X149872762Y-94179200D01*
X149872762Y-94179200D02*
X149777524Y-94083961D01*
X149777524Y-94083961D02*
X149729905Y-93988723D01*
X149729905Y-93988723D02*
X149682286Y-93798247D01*
X149682286Y-93798247D02*
X149682286Y-93655390D01*
X149682286Y-93655390D02*
X149729905Y-93464914D01*
X149729905Y-93464914D02*
X149777524Y-93369676D01*
X149777524Y-93369676D02*
X149872762Y-93274438D01*
X149872762Y-93274438D02*
X150015619Y-93226819D01*
X150015619Y-93226819D02*
X150110857Y-93226819D01*
X150110857Y-93226819D02*
X150253714Y-93274438D01*
X150253714Y-93274438D02*
X150301333Y-93322057D01*
X150872762Y-93655390D02*
X150777524Y-93607771D01*
X150777524Y-93607771D02*
X150729905Y-93560152D01*
X150729905Y-93560152D02*
X150682286Y-93464914D01*
X150682286Y-93464914D02*
X150682286Y-93417295D01*
X150682286Y-93417295D02*
X150729905Y-93322057D01*
X150729905Y-93322057D02*
X150777524Y-93274438D01*
X150777524Y-93274438D02*
X150872762Y-93226819D01*
X150872762Y-93226819D02*
X151063238Y-93226819D01*
X151063238Y-93226819D02*
X151158476Y-93274438D01*
X151158476Y-93274438D02*
X151206095Y-93322057D01*
X151206095Y-93322057D02*
X151253714Y-93417295D01*
X151253714Y-93417295D02*
X151253714Y-93464914D01*
X151253714Y-93464914D02*
X151206095Y-93560152D01*
X151206095Y-93560152D02*
X151158476Y-93607771D01*
X151158476Y-93607771D02*
X151063238Y-93655390D01*
X151063238Y-93655390D02*
X150872762Y-93655390D01*
X150872762Y-93655390D02*
X150777524Y-93703009D01*
X150777524Y-93703009D02*
X150729905Y-93750628D01*
X150729905Y-93750628D02*
X150682286Y-93845866D01*
X150682286Y-93845866D02*
X150682286Y-94036342D01*
X150682286Y-94036342D02*
X150729905Y-94131580D01*
X150729905Y-94131580D02*
X150777524Y-94179200D01*
X150777524Y-94179200D02*
X150872762Y-94226819D01*
X150872762Y-94226819D02*
X151063238Y-94226819D01*
X151063238Y-94226819D02*
X151158476Y-94179200D01*
X151158476Y-94179200D02*
X151206095Y-94131580D01*
X151206095Y-94131580D02*
X151253714Y-94036342D01*
X151253714Y-94036342D02*
X151253714Y-93845866D01*
X151253714Y-93845866D02*
X151206095Y-93750628D01*
X151206095Y-93750628D02*
X151158476Y-93703009D01*
X151158476Y-93703009D02*
X151063238Y-93655390D01*
X152668580Y-108422857D02*
X152716200Y-108470476D01*
X152716200Y-108470476D02*
X152763819Y-108613333D01*
X152763819Y-108613333D02*
X152763819Y-108708571D01*
X152763819Y-108708571D02*
X152716200Y-108851428D01*
X152716200Y-108851428D02*
X152620961Y-108946666D01*
X152620961Y-108946666D02*
X152525723Y-108994285D01*
X152525723Y-108994285D02*
X152335247Y-109041904D01*
X152335247Y-109041904D02*
X152192390Y-109041904D01*
X152192390Y-109041904D02*
X152001914Y-108994285D01*
X152001914Y-108994285D02*
X151906676Y-108946666D01*
X151906676Y-108946666D02*
X151811438Y-108851428D01*
X151811438Y-108851428D02*
X151763819Y-108708571D01*
X151763819Y-108708571D02*
X151763819Y-108613333D01*
X151763819Y-108613333D02*
X151811438Y-108470476D01*
X151811438Y-108470476D02*
X151859057Y-108422857D01*
X152763819Y-107470476D02*
X152763819Y-108041904D01*
X152763819Y-107756190D02*
X151763819Y-107756190D01*
X151763819Y-107756190D02*
X151906676Y-107851428D01*
X151906676Y-107851428D02*
X152001914Y-107946666D01*
X152001914Y-107946666D02*
X152049533Y-108041904D01*
X152192390Y-106899047D02*
X152144771Y-106994285D01*
X152144771Y-106994285D02*
X152097152Y-107041904D01*
X152097152Y-107041904D02*
X152001914Y-107089523D01*
X152001914Y-107089523D02*
X151954295Y-107089523D01*
X151954295Y-107089523D02*
X151859057Y-107041904D01*
X151859057Y-107041904D02*
X151811438Y-106994285D01*
X151811438Y-106994285D02*
X151763819Y-106899047D01*
X151763819Y-106899047D02*
X151763819Y-106708571D01*
X151763819Y-106708571D02*
X151811438Y-106613333D01*
X151811438Y-106613333D02*
X151859057Y-106565714D01*
X151859057Y-106565714D02*
X151954295Y-106518095D01*
X151954295Y-106518095D02*
X152001914Y-106518095D01*
X152001914Y-106518095D02*
X152097152Y-106565714D01*
X152097152Y-106565714D02*
X152144771Y-106613333D01*
X152144771Y-106613333D02*
X152192390Y-106708571D01*
X152192390Y-106708571D02*
X152192390Y-106899047D01*
X152192390Y-106899047D02*
X152240009Y-106994285D01*
X152240009Y-106994285D02*
X152287628Y-107041904D01*
X152287628Y-107041904D02*
X152382866Y-107089523D01*
X152382866Y-107089523D02*
X152573342Y-107089523D01*
X152573342Y-107089523D02*
X152668580Y-107041904D01*
X152668580Y-107041904D02*
X152716200Y-106994285D01*
X152716200Y-106994285D02*
X152763819Y-106899047D01*
X152763819Y-106899047D02*
X152763819Y-106708571D01*
X152763819Y-106708571D02*
X152716200Y-106613333D01*
X152716200Y-106613333D02*
X152668580Y-106565714D01*
X152668580Y-106565714D02*
X152573342Y-106518095D01*
X152573342Y-106518095D02*
X152382866Y-106518095D01*
X152382866Y-106518095D02*
X152287628Y-106565714D01*
X152287628Y-106565714D02*
X152240009Y-106613333D01*
X152240009Y-106613333D02*
X152192390Y-106708571D01*
X163788895Y-80242619D02*
X163788895Y-81052142D01*
X163788895Y-81052142D02*
X163836514Y-81147380D01*
X163836514Y-81147380D02*
X163884133Y-81195000D01*
X163884133Y-81195000D02*
X163979371Y-81242619D01*
X163979371Y-81242619D02*
X164169847Y-81242619D01*
X164169847Y-81242619D02*
X164265085Y-81195000D01*
X164265085Y-81195000D02*
X164312704Y-81147380D01*
X164312704Y-81147380D02*
X164360323Y-81052142D01*
X164360323Y-81052142D02*
X164360323Y-80242619D01*
X164788895Y-80337857D02*
X164836514Y-80290238D01*
X164836514Y-80290238D02*
X164931752Y-80242619D01*
X164931752Y-80242619D02*
X165169847Y-80242619D01*
X165169847Y-80242619D02*
X165265085Y-80290238D01*
X165265085Y-80290238D02*
X165312704Y-80337857D01*
X165312704Y-80337857D02*
X165360323Y-80433095D01*
X165360323Y-80433095D02*
X165360323Y-80528333D01*
X165360323Y-80528333D02*
X165312704Y-80671190D01*
X165312704Y-80671190D02*
X164741276Y-81242619D01*
X164741276Y-81242619D02*
X165360323Y-81242619D01*
X152666580Y-101642857D02*
X152714200Y-101690476D01*
X152714200Y-101690476D02*
X152761819Y-101833333D01*
X152761819Y-101833333D02*
X152761819Y-101928571D01*
X152761819Y-101928571D02*
X152714200Y-102071428D01*
X152714200Y-102071428D02*
X152618961Y-102166666D01*
X152618961Y-102166666D02*
X152523723Y-102214285D01*
X152523723Y-102214285D02*
X152333247Y-102261904D01*
X152333247Y-102261904D02*
X152190390Y-102261904D01*
X152190390Y-102261904D02*
X151999914Y-102214285D01*
X151999914Y-102214285D02*
X151904676Y-102166666D01*
X151904676Y-102166666D02*
X151809438Y-102071428D01*
X151809438Y-102071428D02*
X151761819Y-101928571D01*
X151761819Y-101928571D02*
X151761819Y-101833333D01*
X151761819Y-101833333D02*
X151809438Y-101690476D01*
X151809438Y-101690476D02*
X151857057Y-101642857D01*
X152761819Y-100690476D02*
X152761819Y-101261904D01*
X152761819Y-100976190D02*
X151761819Y-100976190D01*
X151761819Y-100976190D02*
X151904676Y-101071428D01*
X151904676Y-101071428D02*
X151999914Y-101166666D01*
X151999914Y-101166666D02*
X152047533Y-101261904D01*
X151761819Y-100357142D02*
X151761819Y-99690476D01*
X151761819Y-99690476D02*
X152761819Y-100119047D01*
X127247819Y-98907594D02*
X126247819Y-98907594D01*
X126247819Y-98907594D02*
X126247819Y-98669499D01*
X126247819Y-98669499D02*
X126295438Y-98526642D01*
X126295438Y-98526642D02*
X126390676Y-98431404D01*
X126390676Y-98431404D02*
X126485914Y-98383785D01*
X126485914Y-98383785D02*
X126676390Y-98336166D01*
X126676390Y-98336166D02*
X126819247Y-98336166D01*
X126819247Y-98336166D02*
X127009723Y-98383785D01*
X127009723Y-98383785D02*
X127104961Y-98431404D01*
X127104961Y-98431404D02*
X127200200Y-98526642D01*
X127200200Y-98526642D02*
X127247819Y-98669499D01*
X127247819Y-98669499D02*
X127247819Y-98907594D01*
X127247819Y-97383785D02*
X127247819Y-97955213D01*
X127247819Y-97669499D02*
X126247819Y-97669499D01*
X126247819Y-97669499D02*
X126390676Y-97764737D01*
X126390676Y-97764737D02*
X126485914Y-97859975D01*
X126485914Y-97859975D02*
X126533533Y-97955213D01*
X127577142Y-103304819D02*
X127243809Y-102828628D01*
X127005714Y-103304819D02*
X127005714Y-102304819D01*
X127005714Y-102304819D02*
X127386666Y-102304819D01*
X127386666Y-102304819D02*
X127481904Y-102352438D01*
X127481904Y-102352438D02*
X127529523Y-102400057D01*
X127529523Y-102400057D02*
X127577142Y-102495295D01*
X127577142Y-102495295D02*
X127577142Y-102638152D01*
X127577142Y-102638152D02*
X127529523Y-102733390D01*
X127529523Y-102733390D02*
X127481904Y-102781009D01*
X127481904Y-102781009D02*
X127386666Y-102828628D01*
X127386666Y-102828628D02*
X127005714Y-102828628D01*
X128529523Y-103304819D02*
X127958095Y-103304819D01*
X128243809Y-103304819D02*
X128243809Y-102304819D01*
X128243809Y-102304819D02*
X128148571Y-102447676D01*
X128148571Y-102447676D02*
X128053333Y-102542914D01*
X128053333Y-102542914D02*
X127958095Y-102590533D01*
X128862857Y-102304819D02*
X129481904Y-102304819D01*
X129481904Y-102304819D02*
X129148571Y-102685771D01*
X129148571Y-102685771D02*
X129291428Y-102685771D01*
X129291428Y-102685771D02*
X129386666Y-102733390D01*
X129386666Y-102733390D02*
X129434285Y-102781009D01*
X129434285Y-102781009D02*
X129481904Y-102876247D01*
X129481904Y-102876247D02*
X129481904Y-103114342D01*
X129481904Y-103114342D02*
X129434285Y-103209580D01*
X129434285Y-103209580D02*
X129386666Y-103257200D01*
X129386666Y-103257200D02*
X129291428Y-103304819D01*
X129291428Y-103304819D02*
X129005714Y-103304819D01*
X129005714Y-103304819D02*
X128910476Y-103257200D01*
X128910476Y-103257200D02*
X128862857Y-103209580D01*
X148991142Y-109568580D02*
X148943523Y-109616200D01*
X148943523Y-109616200D02*
X148800666Y-109663819D01*
X148800666Y-109663819D02*
X148705428Y-109663819D01*
X148705428Y-109663819D02*
X148562571Y-109616200D01*
X148562571Y-109616200D02*
X148467333Y-109520961D01*
X148467333Y-109520961D02*
X148419714Y-109425723D01*
X148419714Y-109425723D02*
X148372095Y-109235247D01*
X148372095Y-109235247D02*
X148372095Y-109092390D01*
X148372095Y-109092390D02*
X148419714Y-108901914D01*
X148419714Y-108901914D02*
X148467333Y-108806676D01*
X148467333Y-108806676D02*
X148562571Y-108711438D01*
X148562571Y-108711438D02*
X148705428Y-108663819D01*
X148705428Y-108663819D02*
X148800666Y-108663819D01*
X148800666Y-108663819D02*
X148943523Y-108711438D01*
X148943523Y-108711438D02*
X148991142Y-108759057D01*
X149943523Y-109663819D02*
X149372095Y-109663819D01*
X149657809Y-109663819D02*
X149657809Y-108663819D01*
X149657809Y-108663819D02*
X149562571Y-108806676D01*
X149562571Y-108806676D02*
X149467333Y-108901914D01*
X149467333Y-108901914D02*
X149372095Y-108949533D01*
X150800666Y-108997152D02*
X150800666Y-109663819D01*
X150562571Y-108616200D02*
X150324476Y-109330485D01*
X150324476Y-109330485D02*
X150943523Y-109330485D01*
X177834819Y-89910166D02*
X177358628Y-90243499D01*
X177834819Y-90481594D02*
X176834819Y-90481594D01*
X176834819Y-90481594D02*
X176834819Y-90100642D01*
X176834819Y-90100642D02*
X176882438Y-90005404D01*
X176882438Y-90005404D02*
X176930057Y-89957785D01*
X176930057Y-89957785D02*
X177025295Y-89910166D01*
X177025295Y-89910166D02*
X177168152Y-89910166D01*
X177168152Y-89910166D02*
X177263390Y-89957785D01*
X177263390Y-89957785D02*
X177311009Y-90005404D01*
X177311009Y-90005404D02*
X177358628Y-90100642D01*
X177358628Y-90100642D02*
X177358628Y-90481594D01*
X176834819Y-89576832D02*
X176834819Y-88957785D01*
X176834819Y-88957785D02*
X177215771Y-89291118D01*
X177215771Y-89291118D02*
X177215771Y-89148261D01*
X177215771Y-89148261D02*
X177263390Y-89053023D01*
X177263390Y-89053023D02*
X177311009Y-89005404D01*
X177311009Y-89005404D02*
X177406247Y-88957785D01*
X177406247Y-88957785D02*
X177644342Y-88957785D01*
X177644342Y-88957785D02*
X177739580Y-89005404D01*
X177739580Y-89005404D02*
X177787200Y-89053023D01*
X177787200Y-89053023D02*
X177834819Y-89148261D01*
X177834819Y-89148261D02*
X177834819Y-89433975D01*
X177834819Y-89433975D02*
X177787200Y-89529213D01*
X177787200Y-89529213D02*
X177739580Y-89576832D01*
X163773895Y-90130619D02*
X163773895Y-90940142D01*
X163773895Y-90940142D02*
X163821514Y-91035380D01*
X163821514Y-91035380D02*
X163869133Y-91083000D01*
X163869133Y-91083000D02*
X163964371Y-91130619D01*
X163964371Y-91130619D02*
X164154847Y-91130619D01*
X164154847Y-91130619D02*
X164250085Y-91083000D01*
X164250085Y-91083000D02*
X164297704Y-91035380D01*
X164297704Y-91035380D02*
X164345323Y-90940142D01*
X164345323Y-90940142D02*
X164345323Y-90130619D01*
X165250085Y-90463952D02*
X165250085Y-91130619D01*
X165011990Y-90083000D02*
X164773895Y-90797285D01*
X164773895Y-90797285D02*
X165392942Y-90797285D01*
X149486333Y-82534580D02*
X149438714Y-82582200D01*
X149438714Y-82582200D02*
X149295857Y-82629819D01*
X149295857Y-82629819D02*
X149200619Y-82629819D01*
X149200619Y-82629819D02*
X149057762Y-82582200D01*
X149057762Y-82582200D02*
X148962524Y-82486961D01*
X148962524Y-82486961D02*
X148914905Y-82391723D01*
X148914905Y-82391723D02*
X148867286Y-82201247D01*
X148867286Y-82201247D02*
X148867286Y-82058390D01*
X148867286Y-82058390D02*
X148914905Y-81867914D01*
X148914905Y-81867914D02*
X148962524Y-81772676D01*
X148962524Y-81772676D02*
X149057762Y-81677438D01*
X149057762Y-81677438D02*
X149200619Y-81629819D01*
X149200619Y-81629819D02*
X149295857Y-81629819D01*
X149295857Y-81629819D02*
X149438714Y-81677438D01*
X149438714Y-81677438D02*
X149486333Y-81725057D01*
X149819667Y-81629819D02*
X150438714Y-81629819D01*
X150438714Y-81629819D02*
X150105381Y-82010771D01*
X150105381Y-82010771D02*
X150248238Y-82010771D01*
X150248238Y-82010771D02*
X150343476Y-82058390D01*
X150343476Y-82058390D02*
X150391095Y-82106009D01*
X150391095Y-82106009D02*
X150438714Y-82201247D01*
X150438714Y-82201247D02*
X150438714Y-82439342D01*
X150438714Y-82439342D02*
X150391095Y-82534580D01*
X150391095Y-82534580D02*
X150343476Y-82582200D01*
X150343476Y-82582200D02*
X150248238Y-82629819D01*
X150248238Y-82629819D02*
X149962524Y-82629819D01*
X149962524Y-82629819D02*
X149867286Y-82582200D01*
X149867286Y-82582200D02*
X149819667Y-82534580D01*
X158397819Y-76038857D02*
X157921628Y-76372190D01*
X158397819Y-76610285D02*
X157397819Y-76610285D01*
X157397819Y-76610285D02*
X157397819Y-76229333D01*
X157397819Y-76229333D02*
X157445438Y-76134095D01*
X157445438Y-76134095D02*
X157493057Y-76086476D01*
X157493057Y-76086476D02*
X157588295Y-76038857D01*
X157588295Y-76038857D02*
X157731152Y-76038857D01*
X157731152Y-76038857D02*
X157826390Y-76086476D01*
X157826390Y-76086476D02*
X157874009Y-76134095D01*
X157874009Y-76134095D02*
X157921628Y-76229333D01*
X157921628Y-76229333D02*
X157921628Y-76610285D01*
X158397819Y-75086476D02*
X158397819Y-75657904D01*
X158397819Y-75372190D02*
X157397819Y-75372190D01*
X157397819Y-75372190D02*
X157540676Y-75467428D01*
X157540676Y-75467428D02*
X157635914Y-75562666D01*
X157635914Y-75562666D02*
X157683533Y-75657904D01*
X157493057Y-74705523D02*
X157445438Y-74657904D01*
X157445438Y-74657904D02*
X157397819Y-74562666D01*
X157397819Y-74562666D02*
X157397819Y-74324571D01*
X157397819Y-74324571D02*
X157445438Y-74229333D01*
X157445438Y-74229333D02*
X157493057Y-74181714D01*
X157493057Y-74181714D02*
X157588295Y-74134095D01*
X157588295Y-74134095D02*
X157683533Y-74134095D01*
X157683533Y-74134095D02*
X157826390Y-74181714D01*
X157826390Y-74181714D02*
X158397819Y-74753142D01*
X158397819Y-74753142D02*
X158397819Y-74134095D01*
X177787819Y-104787666D02*
X177311628Y-105120999D01*
X177787819Y-105359094D02*
X176787819Y-105359094D01*
X176787819Y-105359094D02*
X176787819Y-104978142D01*
X176787819Y-104978142D02*
X176835438Y-104882904D01*
X176835438Y-104882904D02*
X176883057Y-104835285D01*
X176883057Y-104835285D02*
X176978295Y-104787666D01*
X176978295Y-104787666D02*
X177121152Y-104787666D01*
X177121152Y-104787666D02*
X177216390Y-104835285D01*
X177216390Y-104835285D02*
X177264009Y-104882904D01*
X177264009Y-104882904D02*
X177311628Y-104978142D01*
X177311628Y-104978142D02*
X177311628Y-105359094D01*
X176787819Y-103930523D02*
X176787819Y-104120999D01*
X176787819Y-104120999D02*
X176835438Y-104216237D01*
X176835438Y-104216237D02*
X176883057Y-104263856D01*
X176883057Y-104263856D02*
X177025914Y-104359094D01*
X177025914Y-104359094D02*
X177216390Y-104406713D01*
X177216390Y-104406713D02*
X177597342Y-104406713D01*
X177597342Y-104406713D02*
X177692580Y-104359094D01*
X177692580Y-104359094D02*
X177740200Y-104311475D01*
X177740200Y-104311475D02*
X177787819Y-104216237D01*
X177787819Y-104216237D02*
X177787819Y-104025761D01*
X177787819Y-104025761D02*
X177740200Y-103930523D01*
X177740200Y-103930523D02*
X177692580Y-103882904D01*
X177692580Y-103882904D02*
X177597342Y-103835285D01*
X177597342Y-103835285D02*
X177359247Y-103835285D01*
X177359247Y-103835285D02*
X177264009Y-103882904D01*
X177264009Y-103882904D02*
X177216390Y-103930523D01*
X177216390Y-103930523D02*
X177168771Y-104025761D01*
X177168771Y-104025761D02*
X177168771Y-104216237D01*
X177168771Y-104216237D02*
X177216390Y-104311475D01*
X177216390Y-104311475D02*
X177264009Y-104359094D01*
X177264009Y-104359094D02*
X177359247Y-104406713D01*
X149794142Y-114526580D02*
X149746523Y-114574200D01*
X149746523Y-114574200D02*
X149603666Y-114621819D01*
X149603666Y-114621819D02*
X149508428Y-114621819D01*
X149508428Y-114621819D02*
X149365571Y-114574200D01*
X149365571Y-114574200D02*
X149270333Y-114478961D01*
X149270333Y-114478961D02*
X149222714Y-114383723D01*
X149222714Y-114383723D02*
X149175095Y-114193247D01*
X149175095Y-114193247D02*
X149175095Y-114050390D01*
X149175095Y-114050390D02*
X149222714Y-113859914D01*
X149222714Y-113859914D02*
X149270333Y-113764676D01*
X149270333Y-113764676D02*
X149365571Y-113669438D01*
X149365571Y-113669438D02*
X149508428Y-113621819D01*
X149508428Y-113621819D02*
X149603666Y-113621819D01*
X149603666Y-113621819D02*
X149746523Y-113669438D01*
X149746523Y-113669438D02*
X149794142Y-113717057D01*
X150746523Y-114621819D02*
X150175095Y-114621819D01*
X150460809Y-114621819D02*
X150460809Y-113621819D01*
X150460809Y-113621819D02*
X150365571Y-113764676D01*
X150365571Y-113764676D02*
X150270333Y-113859914D01*
X150270333Y-113859914D02*
X150175095Y-113907533D01*
X151603666Y-113621819D02*
X151413190Y-113621819D01*
X151413190Y-113621819D02*
X151317952Y-113669438D01*
X151317952Y-113669438D02*
X151270333Y-113717057D01*
X151270333Y-113717057D02*
X151175095Y-113859914D01*
X151175095Y-113859914D02*
X151127476Y-114050390D01*
X151127476Y-114050390D02*
X151127476Y-114431342D01*
X151127476Y-114431342D02*
X151175095Y-114526580D01*
X151175095Y-114526580D02*
X151222714Y-114574200D01*
X151222714Y-114574200D02*
X151317952Y-114621819D01*
X151317952Y-114621819D02*
X151508428Y-114621819D01*
X151508428Y-114621819D02*
X151603666Y-114574200D01*
X151603666Y-114574200D02*
X151651285Y-114526580D01*
X151651285Y-114526580D02*
X151698904Y-114431342D01*
X151698904Y-114431342D02*
X151698904Y-114193247D01*
X151698904Y-114193247D02*
X151651285Y-114098009D01*
X151651285Y-114098009D02*
X151603666Y-114050390D01*
X151603666Y-114050390D02*
X151508428Y-114002771D01*
X151508428Y-114002771D02*
X151317952Y-114002771D01*
X151317952Y-114002771D02*
X151222714Y-114050390D01*
X151222714Y-114050390D02*
X151175095Y-114098009D01*
X151175095Y-114098009D02*
X151127476Y-114193247D01*
X177784819Y-114627166D02*
X177308628Y-114960499D01*
X177784819Y-115198594D02*
X176784819Y-115198594D01*
X176784819Y-115198594D02*
X176784819Y-114817642D01*
X176784819Y-114817642D02*
X176832438Y-114722404D01*
X176832438Y-114722404D02*
X176880057Y-114674785D01*
X176880057Y-114674785D02*
X176975295Y-114627166D01*
X176975295Y-114627166D02*
X177118152Y-114627166D01*
X177118152Y-114627166D02*
X177213390Y-114674785D01*
X177213390Y-114674785D02*
X177261009Y-114722404D01*
X177261009Y-114722404D02*
X177308628Y-114817642D01*
X177308628Y-114817642D02*
X177308628Y-115198594D01*
X177213390Y-114055737D02*
X177165771Y-114150975D01*
X177165771Y-114150975D02*
X177118152Y-114198594D01*
X177118152Y-114198594D02*
X177022914Y-114246213D01*
X177022914Y-114246213D02*
X176975295Y-114246213D01*
X176975295Y-114246213D02*
X176880057Y-114198594D01*
X176880057Y-114198594D02*
X176832438Y-114150975D01*
X176832438Y-114150975D02*
X176784819Y-114055737D01*
X176784819Y-114055737D02*
X176784819Y-113865261D01*
X176784819Y-113865261D02*
X176832438Y-113770023D01*
X176832438Y-113770023D02*
X176880057Y-113722404D01*
X176880057Y-113722404D02*
X176975295Y-113674785D01*
X176975295Y-113674785D02*
X177022914Y-113674785D01*
X177022914Y-113674785D02*
X177118152Y-113722404D01*
X177118152Y-113722404D02*
X177165771Y-113770023D01*
X177165771Y-113770023D02*
X177213390Y-113865261D01*
X177213390Y-113865261D02*
X177213390Y-114055737D01*
X177213390Y-114055737D02*
X177261009Y-114150975D01*
X177261009Y-114150975D02*
X177308628Y-114198594D01*
X177308628Y-114198594D02*
X177403866Y-114246213D01*
X177403866Y-114246213D02*
X177594342Y-114246213D01*
X177594342Y-114246213D02*
X177689580Y-114198594D01*
X177689580Y-114198594D02*
X177737200Y-114150975D01*
X177737200Y-114150975D02*
X177784819Y-114055737D01*
X177784819Y-114055737D02*
X177784819Y-113865261D01*
X177784819Y-113865261D02*
X177737200Y-113770023D01*
X177737200Y-113770023D02*
X177689580Y-113722404D01*
X177689580Y-113722404D02*
X177594342Y-113674785D01*
X177594342Y-113674785D02*
X177403866Y-113674785D01*
X177403866Y-113674785D02*
X177308628Y-113722404D01*
X177308628Y-113722404D02*
X177261009Y-113770023D01*
X177261009Y-113770023D02*
X177213390Y-113865261D01*
X148927142Y-99045580D02*
X148879523Y-99093200D01*
X148879523Y-99093200D02*
X148736666Y-99140819D01*
X148736666Y-99140819D02*
X148641428Y-99140819D01*
X148641428Y-99140819D02*
X148498571Y-99093200D01*
X148498571Y-99093200D02*
X148403333Y-98997961D01*
X148403333Y-98997961D02*
X148355714Y-98902723D01*
X148355714Y-98902723D02*
X148308095Y-98712247D01*
X148308095Y-98712247D02*
X148308095Y-98569390D01*
X148308095Y-98569390D02*
X148355714Y-98378914D01*
X148355714Y-98378914D02*
X148403333Y-98283676D01*
X148403333Y-98283676D02*
X148498571Y-98188438D01*
X148498571Y-98188438D02*
X148641428Y-98140819D01*
X148641428Y-98140819D02*
X148736666Y-98140819D01*
X148736666Y-98140819D02*
X148879523Y-98188438D01*
X148879523Y-98188438D02*
X148927142Y-98236057D01*
X149879523Y-99140819D02*
X149308095Y-99140819D01*
X149593809Y-99140819D02*
X149593809Y-98140819D01*
X149593809Y-98140819D02*
X149498571Y-98283676D01*
X149498571Y-98283676D02*
X149403333Y-98378914D01*
X149403333Y-98378914D02*
X149308095Y-98426533D01*
X150831904Y-99140819D02*
X150260476Y-99140819D01*
X150546190Y-99140819D02*
X150546190Y-98140819D01*
X150546190Y-98140819D02*
X150450952Y-98283676D01*
X150450952Y-98283676D02*
X150355714Y-98378914D01*
X150355714Y-98378914D02*
X150260476Y-98426533D01*
X177847819Y-80098166D02*
X177371628Y-80431499D01*
X177847819Y-80669594D02*
X176847819Y-80669594D01*
X176847819Y-80669594D02*
X176847819Y-80288642D01*
X176847819Y-80288642D02*
X176895438Y-80193404D01*
X176895438Y-80193404D02*
X176943057Y-80145785D01*
X176943057Y-80145785D02*
X177038295Y-80098166D01*
X177038295Y-80098166D02*
X177181152Y-80098166D01*
X177181152Y-80098166D02*
X177276390Y-80145785D01*
X177276390Y-80145785D02*
X177324009Y-80193404D01*
X177324009Y-80193404D02*
X177371628Y-80288642D01*
X177371628Y-80288642D02*
X177371628Y-80669594D01*
X177847819Y-79145785D02*
X177847819Y-79717213D01*
X177847819Y-79431499D02*
X176847819Y-79431499D01*
X176847819Y-79431499D02*
X176990676Y-79526737D01*
X176990676Y-79526737D02*
X177085914Y-79621975D01*
X177085914Y-79621975D02*
X177133533Y-79717213D01*
X177796819Y-99741166D02*
X177320628Y-100074499D01*
X177796819Y-100312594D02*
X176796819Y-100312594D01*
X176796819Y-100312594D02*
X176796819Y-99931642D01*
X176796819Y-99931642D02*
X176844438Y-99836404D01*
X176844438Y-99836404D02*
X176892057Y-99788785D01*
X176892057Y-99788785D02*
X176987295Y-99741166D01*
X176987295Y-99741166D02*
X177130152Y-99741166D01*
X177130152Y-99741166D02*
X177225390Y-99788785D01*
X177225390Y-99788785D02*
X177273009Y-99836404D01*
X177273009Y-99836404D02*
X177320628Y-99931642D01*
X177320628Y-99931642D02*
X177320628Y-100312594D01*
X176796819Y-98836404D02*
X176796819Y-99312594D01*
X176796819Y-99312594D02*
X177273009Y-99360213D01*
X177273009Y-99360213D02*
X177225390Y-99312594D01*
X177225390Y-99312594D02*
X177177771Y-99217356D01*
X177177771Y-99217356D02*
X177177771Y-98979261D01*
X177177771Y-98979261D02*
X177225390Y-98884023D01*
X177225390Y-98884023D02*
X177273009Y-98836404D01*
X177273009Y-98836404D02*
X177368247Y-98788785D01*
X177368247Y-98788785D02*
X177606342Y-98788785D01*
X177606342Y-98788785D02*
X177701580Y-98836404D01*
X177701580Y-98836404D02*
X177749200Y-98884023D01*
X177749200Y-98884023D02*
X177796819Y-98979261D01*
X177796819Y-98979261D02*
X177796819Y-99217356D01*
X177796819Y-99217356D02*
X177749200Y-99312594D01*
X177749200Y-99312594D02*
X177701580Y-99360213D01*
X163735895Y-109901619D02*
X163735895Y-110711142D01*
X163735895Y-110711142D02*
X163783514Y-110806380D01*
X163783514Y-110806380D02*
X163831133Y-110854000D01*
X163831133Y-110854000D02*
X163926371Y-110901619D01*
X163926371Y-110901619D02*
X164116847Y-110901619D01*
X164116847Y-110901619D02*
X164212085Y-110854000D01*
X164212085Y-110854000D02*
X164259704Y-110806380D01*
X164259704Y-110806380D02*
X164307323Y-110711142D01*
X164307323Y-110711142D02*
X164307323Y-109901619D01*
X164926371Y-110330190D02*
X164831133Y-110282571D01*
X164831133Y-110282571D02*
X164783514Y-110234952D01*
X164783514Y-110234952D02*
X164735895Y-110139714D01*
X164735895Y-110139714D02*
X164735895Y-110092095D01*
X164735895Y-110092095D02*
X164783514Y-109996857D01*
X164783514Y-109996857D02*
X164831133Y-109949238D01*
X164831133Y-109949238D02*
X164926371Y-109901619D01*
X164926371Y-109901619D02*
X165116847Y-109901619D01*
X165116847Y-109901619D02*
X165212085Y-109949238D01*
X165212085Y-109949238D02*
X165259704Y-109996857D01*
X165259704Y-109996857D02*
X165307323Y-110092095D01*
X165307323Y-110092095D02*
X165307323Y-110139714D01*
X165307323Y-110139714D02*
X165259704Y-110234952D01*
X165259704Y-110234952D02*
X165212085Y-110282571D01*
X165212085Y-110282571D02*
X165116847Y-110330190D01*
X165116847Y-110330190D02*
X164926371Y-110330190D01*
X164926371Y-110330190D02*
X164831133Y-110377809D01*
X164831133Y-110377809D02*
X164783514Y-110425428D01*
X164783514Y-110425428D02*
X164735895Y-110520666D01*
X164735895Y-110520666D02*
X164735895Y-110711142D01*
X164735895Y-110711142D02*
X164783514Y-110806380D01*
X164783514Y-110806380D02*
X164831133Y-110854000D01*
X164831133Y-110854000D02*
X164926371Y-110901619D01*
X164926371Y-110901619D02*
X165116847Y-110901619D01*
X165116847Y-110901619D02*
X165212085Y-110854000D01*
X165212085Y-110854000D02*
X165259704Y-110806380D01*
X165259704Y-110806380D02*
X165307323Y-110711142D01*
X165307323Y-110711142D02*
X165307323Y-110520666D01*
X165307323Y-110520666D02*
X165259704Y-110425428D01*
X165259704Y-110425428D02*
X165212085Y-110377809D01*
X165212085Y-110377809D02*
X165116847Y-110330190D01*
X174787666Y-119180819D02*
X174454333Y-118704628D01*
X174216238Y-119180819D02*
X174216238Y-118180819D01*
X174216238Y-118180819D02*
X174597190Y-118180819D01*
X174597190Y-118180819D02*
X174692428Y-118228438D01*
X174692428Y-118228438D02*
X174740047Y-118276057D01*
X174740047Y-118276057D02*
X174787666Y-118371295D01*
X174787666Y-118371295D02*
X174787666Y-118514152D01*
X174787666Y-118514152D02*
X174740047Y-118609390D01*
X174740047Y-118609390D02*
X174692428Y-118657009D01*
X174692428Y-118657009D02*
X174597190Y-118704628D01*
X174597190Y-118704628D02*
X174216238Y-118704628D01*
X175216238Y-118657009D02*
X175549571Y-118657009D01*
X175692428Y-119180819D02*
X175216238Y-119180819D01*
X175216238Y-119180819D02*
X175216238Y-118180819D01*
X175216238Y-118180819D02*
X175692428Y-118180819D01*
X176454333Y-118657009D02*
X176121000Y-118657009D01*
X176121000Y-119180819D02*
X176121000Y-118180819D01*
X176121000Y-118180819D02*
X176597190Y-118180819D01*
X177121000Y-118180819D02*
X177121000Y-118418914D01*
X176882905Y-118323676D02*
X177121000Y-118418914D01*
X177121000Y-118418914D02*
X177359095Y-118323676D01*
X176978143Y-118609390D02*
X177121000Y-118418914D01*
X177121000Y-118418914D02*
X177263857Y-118609390D01*
X177882905Y-118180819D02*
X177882905Y-118418914D01*
X177644810Y-118323676D02*
X177882905Y-118418914D01*
X177882905Y-118418914D02*
X178121000Y-118323676D01*
X177740048Y-118609390D02*
X177882905Y-118418914D01*
X177882905Y-118418914D02*
X178025762Y-118609390D01*
X126561475Y-71430819D02*
X126228142Y-70954628D01*
X125990047Y-71430819D02*
X125990047Y-70430819D01*
X125990047Y-70430819D02*
X126370999Y-70430819D01*
X126370999Y-70430819D02*
X126466237Y-70478438D01*
X126466237Y-70478438D02*
X126513856Y-70526057D01*
X126513856Y-70526057D02*
X126561475Y-70621295D01*
X126561475Y-70621295D02*
X126561475Y-70764152D01*
X126561475Y-70764152D02*
X126513856Y-70859390D01*
X126513856Y-70859390D02*
X126466237Y-70907009D01*
X126466237Y-70907009D02*
X126370999Y-70954628D01*
X126370999Y-70954628D02*
X125990047Y-70954628D01*
X126990047Y-70907009D02*
X127323380Y-70907009D01*
X127466237Y-71430819D02*
X126990047Y-71430819D01*
X126990047Y-71430819D02*
X126990047Y-70430819D01*
X126990047Y-70430819D02*
X127466237Y-70430819D01*
X128228142Y-70907009D02*
X127894809Y-70907009D01*
X127894809Y-71430819D02*
X127894809Y-70430819D01*
X127894809Y-70430819D02*
X128370999Y-70430819D01*
X128894809Y-70430819D02*
X128894809Y-70668914D01*
X128656714Y-70573676D02*
X128894809Y-70668914D01*
X128894809Y-70668914D02*
X129132904Y-70573676D01*
X128751952Y-70859390D02*
X128894809Y-70668914D01*
X128894809Y-70668914D02*
X129037666Y-70859390D01*
X129656714Y-70430819D02*
X129656714Y-70668914D01*
X129418619Y-70573676D02*
X129656714Y-70668914D01*
X129656714Y-70668914D02*
X129894809Y-70573676D01*
X129513857Y-70859390D02*
X129656714Y-70668914D01*
X129656714Y-70668914D02*
X129799571Y-70859390D01*
X130799571Y-71430819D02*
X130228143Y-71430819D01*
X130513857Y-71430819D02*
X130513857Y-70430819D01*
X130513857Y-70430819D02*
X130418619Y-70573676D01*
X130418619Y-70573676D02*
X130323381Y-70668914D01*
X130323381Y-70668914D02*
X130228143Y-70716533D01*
X174311475Y-71430819D02*
X173978142Y-70954628D01*
X173740047Y-71430819D02*
X173740047Y-70430819D01*
X173740047Y-70430819D02*
X174120999Y-70430819D01*
X174120999Y-70430819D02*
X174216237Y-70478438D01*
X174216237Y-70478438D02*
X174263856Y-70526057D01*
X174263856Y-70526057D02*
X174311475Y-70621295D01*
X174311475Y-70621295D02*
X174311475Y-70764152D01*
X174311475Y-70764152D02*
X174263856Y-70859390D01*
X174263856Y-70859390D02*
X174216237Y-70907009D01*
X174216237Y-70907009D02*
X174120999Y-70954628D01*
X174120999Y-70954628D02*
X173740047Y-70954628D01*
X174740047Y-70907009D02*
X175073380Y-70907009D01*
X175216237Y-71430819D02*
X174740047Y-71430819D01*
X174740047Y-71430819D02*
X174740047Y-70430819D01*
X174740047Y-70430819D02*
X175216237Y-70430819D01*
X175978142Y-70907009D02*
X175644809Y-70907009D01*
X175644809Y-71430819D02*
X175644809Y-70430819D01*
X175644809Y-70430819D02*
X176120999Y-70430819D01*
X176644809Y-70430819D02*
X176644809Y-70668914D01*
X176406714Y-70573676D02*
X176644809Y-70668914D01*
X176644809Y-70668914D02*
X176882904Y-70573676D01*
X176501952Y-70859390D02*
X176644809Y-70668914D01*
X176644809Y-70668914D02*
X176787666Y-70859390D01*
X177406714Y-70430819D02*
X177406714Y-70668914D01*
X177168619Y-70573676D02*
X177406714Y-70668914D01*
X177406714Y-70668914D02*
X177644809Y-70573676D01*
X177263857Y-70859390D02*
X177406714Y-70668914D01*
X177406714Y-70668914D02*
X177549571Y-70859390D01*
X177978143Y-70526057D02*
X178025762Y-70478438D01*
X178025762Y-70478438D02*
X178121000Y-70430819D01*
X178121000Y-70430819D02*
X178359095Y-70430819D01*
X178359095Y-70430819D02*
X178454333Y-70478438D01*
X178454333Y-70478438D02*
X178501952Y-70526057D01*
X178501952Y-70526057D02*
X178549571Y-70621295D01*
X178549571Y-70621295D02*
X178549571Y-70716533D01*
X178549571Y-70716533D02*
X178501952Y-70859390D01*
X178501952Y-70859390D02*
X177930524Y-71430819D01*
X177930524Y-71430819D02*
X178549571Y-71430819D01*
X126561475Y-119180819D02*
X126228142Y-118704628D01*
X125990047Y-119180819D02*
X125990047Y-118180819D01*
X125990047Y-118180819D02*
X126370999Y-118180819D01*
X126370999Y-118180819D02*
X126466237Y-118228438D01*
X126466237Y-118228438D02*
X126513856Y-118276057D01*
X126513856Y-118276057D02*
X126561475Y-118371295D01*
X126561475Y-118371295D02*
X126561475Y-118514152D01*
X126561475Y-118514152D02*
X126513856Y-118609390D01*
X126513856Y-118609390D02*
X126466237Y-118657009D01*
X126466237Y-118657009D02*
X126370999Y-118704628D01*
X126370999Y-118704628D02*
X125990047Y-118704628D01*
X126990047Y-118657009D02*
X127323380Y-118657009D01*
X127466237Y-119180819D02*
X126990047Y-119180819D01*
X126990047Y-119180819D02*
X126990047Y-118180819D01*
X126990047Y-118180819D02*
X127466237Y-118180819D01*
X128228142Y-118657009D02*
X127894809Y-118657009D01*
X127894809Y-119180819D02*
X127894809Y-118180819D01*
X127894809Y-118180819D02*
X128370999Y-118180819D01*
X128894809Y-118180819D02*
X128894809Y-118418914D01*
X128656714Y-118323676D02*
X128894809Y-118418914D01*
X128894809Y-118418914D02*
X129132904Y-118323676D01*
X128751952Y-118609390D02*
X128894809Y-118418914D01*
X128894809Y-118418914D02*
X129037666Y-118609390D01*
X129656714Y-118180819D02*
X129656714Y-118418914D01*
X129418619Y-118323676D02*
X129656714Y-118418914D01*
X129656714Y-118418914D02*
X129894809Y-118323676D01*
X129513857Y-118609390D02*
X129656714Y-118418914D01*
X129656714Y-118418914D02*
X129799571Y-118609390D01*
X130180524Y-118180819D02*
X130799571Y-118180819D01*
X130799571Y-118180819D02*
X130466238Y-118561771D01*
X130466238Y-118561771D02*
X130609095Y-118561771D01*
X130609095Y-118561771D02*
X130704333Y-118609390D01*
X130704333Y-118609390D02*
X130751952Y-118657009D01*
X130751952Y-118657009D02*
X130799571Y-118752247D01*
X130799571Y-118752247D02*
X130799571Y-118990342D01*
X130799571Y-118990342D02*
X130751952Y-119085580D01*
X130751952Y-119085580D02*
X130704333Y-119133200D01*
X130704333Y-119133200D02*
X130609095Y-119180819D01*
X130609095Y-119180819D02*
X130323381Y-119180819D01*
X130323381Y-119180819D02*
X130228143Y-119133200D01*
X130228143Y-119133200D02*
X130180524Y-119085580D01*
D13*
%TO.C,J2*%
X169040000Y-77523000D02*
G75*
G02*
X168840000Y-77523000I-100000J0D01*
G01*
X168840000Y-77523000D02*
G75*
G02*
X169040000Y-77523000I100000J0D01*
G01*
X170160000Y-74173000D02*
X170160000Y-72923000D01*
X170160000Y-70203000D02*
X170160000Y-68923000D01*
X161220000Y-74173000D02*
X161220000Y-72923000D01*
X161220000Y-68923000D02*
X161220000Y-70203000D01*
D14*
%TO.C,U11*%
X146315000Y-122133000D02*
X146315000Y-123403000D01*
X146315000Y-123403000D02*
X146950000Y-124038000D01*
X146950000Y-121498000D02*
X146315000Y-122133000D01*
X146950000Y-121498000D02*
X148220000Y-121498000D01*
X148220000Y-121498000D02*
X148855000Y-122133000D01*
X148220000Y-124038000D02*
X146950000Y-124038000D01*
X148855000Y-122133000D02*
X148855000Y-123403000D01*
X148855000Y-122133000D02*
X149490000Y-121498000D01*
X148855000Y-123403000D02*
X148220000Y-124038000D01*
X149490000Y-121498000D02*
X150760000Y-121498000D01*
X149490000Y-124038000D02*
X148855000Y-123403000D01*
X150760000Y-121498000D02*
X151395000Y-122133000D01*
X150760000Y-124038000D02*
X149490000Y-124038000D01*
X151395000Y-122133000D02*
X151395000Y-123403000D01*
X151395000Y-122133000D02*
X152030000Y-121498000D01*
X151395000Y-123403000D02*
X150760000Y-124038000D01*
X152030000Y-121498000D02*
X153300000Y-121498000D01*
X152030000Y-124038000D02*
X151395000Y-123403000D01*
X153300000Y-121498000D02*
X153935000Y-122133000D01*
X153300000Y-124038000D02*
X152030000Y-124038000D01*
X153935000Y-122133000D02*
X153935000Y-123403000D01*
X153935000Y-123403000D02*
X153300000Y-124038000D01*
X153935000Y-123403000D02*
X154570000Y-124038000D01*
X154570000Y-121498000D02*
X153935000Y-122133000D01*
X154570000Y-121498000D02*
X155840000Y-121498000D01*
X155840000Y-121498000D02*
X156475000Y-122133000D01*
X155840000Y-124038000D02*
X154570000Y-124038000D01*
X156475000Y-122133000D02*
X156475000Y-123403000D01*
X156475000Y-122133000D02*
X157110000Y-121498000D01*
X156475000Y-123403000D02*
X155840000Y-124038000D01*
X157110000Y-121498000D02*
X158380000Y-121498000D01*
X157110000Y-124038000D02*
X156475000Y-123403000D01*
X158380000Y-121498000D02*
X159015000Y-122133000D01*
X158380000Y-124038000D02*
X157110000Y-124038000D01*
X159015000Y-122133000D02*
X159015000Y-123403000D01*
X159015000Y-123403000D02*
X158380000Y-124038000D01*
D15*
%TO.C,U5*%
X161601800Y-98469800D02*
X161601800Y-101559800D01*
X161601800Y-101559800D02*
X163281800Y-101559800D01*
X163281800Y-98469800D02*
X161601800Y-98469800D01*
X173021800Y-101559800D02*
X174701800Y-101559800D01*
X174701800Y-98469800D02*
X173021800Y-98469800D01*
X174701800Y-101559800D02*
X174701800Y-98469800D01*
D13*
X171001800Y-96493800D02*
G75*
G02*
X170801800Y-96493800I-100000J0D01*
G01*
X170801800Y-96493800D02*
G75*
G02*
X171001800Y-96493800I100000J0D01*
G01*
D16*
%TO.C,R2*%
X175346000Y-84676436D02*
X175346000Y-85130564D01*
X176816000Y-84676436D02*
X176816000Y-85130564D01*
%TO.C,C9*%
X153252000Y-85188000D02*
X154452000Y-85188000D01*
X153252000Y-88643563D02*
X153252000Y-85188000D01*
X153702000Y-90198000D02*
X154202000Y-90198000D01*
X153952000Y-90448000D02*
X153952000Y-89948000D01*
X154316437Y-89708000D02*
X153252000Y-88643563D01*
X154316437Y-89708000D02*
X154452000Y-89708000D01*
X156707563Y-89708000D02*
X156572000Y-89708000D01*
X156707563Y-89708000D02*
X157772000Y-88643563D01*
X157772000Y-85188000D02*
X156572000Y-85188000D01*
X157772000Y-88643563D02*
X157772000Y-85188000D01*
D15*
%TO.C,U1*%
X161614000Y-78700000D02*
X161614000Y-81790000D01*
X161614000Y-81790000D02*
X163294000Y-81790000D01*
X163294000Y-78700000D02*
X161614000Y-78700000D01*
X173034000Y-81790000D02*
X174714000Y-81790000D01*
X174714000Y-78700000D02*
X173034000Y-78700000D01*
X174714000Y-81790000D02*
X174714000Y-78700000D01*
D13*
X171014000Y-76724000D02*
G75*
G02*
X170814000Y-76724000I-100000J0D01*
G01*
X170814000Y-76724000D02*
G75*
G02*
X171014000Y-76724000I100000J0D01*
G01*
D16*
%TO.C,C24*%
X162931000Y-119206437D02*
X162931000Y-122662000D01*
X162931000Y-122662000D02*
X164131000Y-122662000D01*
X163995437Y-118142000D02*
X162931000Y-119206437D01*
X163995437Y-118142000D02*
X164131000Y-118142000D01*
X166386563Y-118142000D02*
X166251000Y-118142000D01*
X166386563Y-118142000D02*
X167451000Y-119206437D01*
X166751000Y-117402000D02*
X166751000Y-117902000D01*
X167001000Y-117652000D02*
X166501000Y-117652000D01*
X167451000Y-119206437D02*
X167451000Y-122662000D01*
X167451000Y-122662000D02*
X166251000Y-122662000D01*
%TO.C,C26*%
X159302000Y-72043420D02*
X159302000Y-72324580D01*
X160322000Y-72043420D02*
X160322000Y-72324580D01*
%TO.C,C19*%
X177352000Y-109213748D02*
X177352000Y-109736252D01*
X178822000Y-109213748D02*
X178822000Y-109736252D01*
%TO.C,C15*%
X177322000Y-104360748D02*
X177322000Y-104883252D01*
X178792000Y-104360748D02*
X178792000Y-104883252D01*
%TO.C,C10*%
X177305000Y-94580748D02*
X177305000Y-95103252D01*
X178775000Y-94580748D02*
X178775000Y-95103252D01*
%TO.C,R11*%
X171013000Y-75639564D02*
X171013000Y-75185436D01*
X172483000Y-75639564D02*
X172483000Y-75185436D01*
%TO.C,C22*%
X167871000Y-119168437D02*
X167871000Y-122624000D01*
X167871000Y-122624000D02*
X169071000Y-122624000D01*
X168935437Y-118104000D02*
X167871000Y-119168437D01*
X168935437Y-118104000D02*
X169071000Y-118104000D01*
X171326563Y-118104000D02*
X171191000Y-118104000D01*
X171326563Y-118104000D02*
X172391000Y-119168437D01*
X171691000Y-117364000D02*
X171691000Y-117864000D01*
X171941000Y-117614000D02*
X171441000Y-117614000D01*
X172391000Y-119168437D02*
X172391000Y-122624000D01*
X172391000Y-122624000D02*
X171191000Y-122624000D01*
D15*
%TO.C,U6*%
X161584800Y-103417800D02*
X161584800Y-106507800D01*
X161584800Y-106507800D02*
X163264800Y-106507800D01*
X163264800Y-103417800D02*
X161584800Y-103417800D01*
X173004800Y-106507800D02*
X174684800Y-106507800D01*
X174684800Y-103417800D02*
X173004800Y-103417800D01*
X174684800Y-106507800D02*
X174684800Y-103417800D01*
D13*
X170984800Y-101441800D02*
G75*
G02*
X170784800Y-101441800I-100000J0D01*
G01*
X170784800Y-101441800D02*
G75*
G02*
X170984800Y-101441800I100000J0D01*
G01*
D16*
%TO.C,C13*%
X177307000Y-99286748D02*
X177307000Y-99809252D01*
X178777000Y-99286748D02*
X178777000Y-99809252D01*
%TO.C,R7*%
X175283000Y-109262436D02*
X175283000Y-109716564D01*
X176753000Y-109262436D02*
X176753000Y-109716564D01*
%TO.C,C2*%
X177300000Y-79650748D02*
X177300000Y-80173252D01*
X178770000Y-79650748D02*
X178770000Y-80173252D01*
D15*
%TO.C,U7*%
X161568800Y-108353800D02*
X161568800Y-111443800D01*
X161568800Y-111443800D02*
X163248800Y-111443800D01*
X163248800Y-108353800D02*
X161568800Y-108353800D01*
X172988800Y-111443800D02*
X174668800Y-111443800D01*
X174668800Y-108353800D02*
X172988800Y-108353800D01*
X174668800Y-111443800D02*
X174668800Y-108353800D01*
D13*
X170968800Y-106377800D02*
G75*
G02*
X170768800Y-106377800I-100000J0D01*
G01*
X170768800Y-106377800D02*
G75*
G02*
X170968800Y-106377800I100000J0D01*
G01*
D16*
%TO.C,C12*%
X153252000Y-91958000D02*
X154452000Y-91958000D01*
X153252000Y-95413563D02*
X153252000Y-91958000D01*
X153702000Y-96968000D02*
X154202000Y-96968000D01*
X153952000Y-97218000D02*
X153952000Y-96718000D01*
X154316437Y-96478000D02*
X153252000Y-95413563D01*
X154316437Y-96478000D02*
X154452000Y-96478000D01*
X156707563Y-96478000D02*
X156572000Y-96478000D01*
X156707563Y-96478000D02*
X157772000Y-95413563D01*
X157772000Y-91958000D02*
X156572000Y-91958000D01*
X157772000Y-95413563D02*
X157772000Y-91958000D01*
%TO.C,C23*%
X153253000Y-112300000D02*
X154453000Y-112300000D01*
X153253000Y-115755563D02*
X153253000Y-112300000D01*
X153703000Y-117310000D02*
X154203000Y-117310000D01*
X153953000Y-117560000D02*
X153953000Y-117060000D01*
X154317437Y-116820000D02*
X153253000Y-115755563D01*
X154317437Y-116820000D02*
X154453000Y-116820000D01*
X156708563Y-116820000D02*
X156573000Y-116820000D01*
X156708563Y-116820000D02*
X157773000Y-115755563D01*
X157773000Y-112300000D02*
X156573000Y-112300000D01*
X157773000Y-115755563D02*
X157773000Y-112300000D01*
%TO.C,C20*%
X147449000Y-113554000D02*
X147449000Y-114754000D01*
X147449000Y-118074000D02*
X147449000Y-116874000D01*
X150904563Y-113554000D02*
X147449000Y-113554000D01*
X150904563Y-118074000D02*
X147449000Y-118074000D01*
X151969000Y-114618437D02*
X150904563Y-113554000D01*
X151969000Y-114618437D02*
X151969000Y-114754000D01*
X151969000Y-117009563D02*
X150904563Y-118074000D01*
X151969000Y-117009563D02*
X151969000Y-116874000D01*
X152459000Y-117624000D02*
X152459000Y-117124000D01*
X152709000Y-117374000D02*
X152209000Y-117374000D01*
%TO.C,C7*%
X177363000Y-89523748D02*
X177363000Y-90046252D01*
X178833000Y-89523748D02*
X178833000Y-90046252D01*
%TO.C,R14*%
X170979000Y-71801436D02*
X170979000Y-72255564D01*
X172449000Y-71801436D02*
X172449000Y-72255564D01*
%TO.C,R4*%
X175298000Y-94603436D02*
X175298000Y-95057564D01*
X176768000Y-94603436D02*
X176768000Y-95057564D01*
%TO.C,C5*%
X148217000Y-81614000D02*
X148217000Y-82814000D01*
X148217000Y-86134000D02*
X148217000Y-84934000D01*
X151672563Y-81614000D02*
X148217000Y-81614000D01*
X151672563Y-86134000D02*
X148217000Y-86134000D01*
X152737000Y-82678437D02*
X151672563Y-81614000D01*
X152737000Y-82678437D02*
X152737000Y-82814000D01*
X152737000Y-85069563D02*
X151672563Y-86134000D01*
X152737000Y-85069563D02*
X152737000Y-84934000D01*
X153227000Y-85684000D02*
X153227000Y-85184000D01*
X153477000Y-85434000D02*
X152977000Y-85434000D01*
%TO.C,C6*%
X153249000Y-78412000D02*
X154449000Y-78412000D01*
X153249000Y-81867563D02*
X153249000Y-78412000D01*
X153699000Y-83422000D02*
X154199000Y-83422000D01*
X153949000Y-83672000D02*
X153949000Y-83172000D01*
X154313437Y-82932000D02*
X153249000Y-81867563D01*
X154313437Y-82932000D02*
X154449000Y-82932000D01*
X156704563Y-82932000D02*
X156569000Y-82932000D01*
X156704563Y-82932000D02*
X157769000Y-81867563D01*
X157769000Y-78412000D02*
X156569000Y-78412000D01*
X157769000Y-81867563D02*
X157769000Y-78412000D01*
%TO.C,C1*%
X153252000Y-71626000D02*
X154452000Y-71626000D01*
X153252000Y-75081563D02*
X153252000Y-71626000D01*
X153702000Y-76636000D02*
X154202000Y-76636000D01*
X153952000Y-76886000D02*
X153952000Y-76386000D01*
X154316437Y-76146000D02*
X153252000Y-75081563D01*
X154316437Y-76146000D02*
X154452000Y-76146000D01*
X156707563Y-76146000D02*
X156572000Y-76146000D01*
X156707563Y-76146000D02*
X157772000Y-75081563D01*
X157772000Y-71626000D02*
X156572000Y-71626000D01*
X157772000Y-75081563D02*
X157772000Y-71626000D01*
D15*
%TO.C,U3*%
X161623800Y-88590800D02*
X161623800Y-91680800D01*
X161623800Y-91680800D02*
X163303800Y-91680800D01*
X163303800Y-88590800D02*
X161623800Y-88590800D01*
X173043800Y-91680800D02*
X174723800Y-91680800D01*
X174723800Y-88590800D02*
X173043800Y-88590800D01*
X174723800Y-91680800D02*
X174723800Y-88590800D01*
D13*
X171023800Y-86614800D02*
G75*
G02*
X170823800Y-86614800I-100000J0D01*
G01*
X170823800Y-86614800D02*
G75*
G02*
X171023800Y-86614800I100000J0D01*
G01*
D16*
%TO.C,C4*%
X177347000Y-84650748D02*
X177347000Y-85173252D01*
X178817000Y-84650748D02*
X178817000Y-85173252D01*
%TO.C,C21*%
X177331000Y-114219748D02*
X177331000Y-114742252D01*
X178801000Y-114219748D02*
X178801000Y-114742252D01*
%TO.C,C8*%
X148208000Y-88312000D02*
X148208000Y-89512000D01*
X148208000Y-92832000D02*
X148208000Y-91632000D01*
X151663563Y-88312000D02*
X148208000Y-88312000D01*
X151663563Y-92832000D02*
X148208000Y-92832000D01*
X152728000Y-89376437D02*
X151663563Y-88312000D01*
X152728000Y-89376437D02*
X152728000Y-89512000D01*
X152728000Y-91767563D02*
X151663563Y-92832000D01*
X152728000Y-91767563D02*
X152728000Y-91632000D01*
X153218000Y-92382000D02*
X153218000Y-91882000D01*
X153468000Y-92132000D02*
X152968000Y-92132000D01*
%TO.C,C18*%
X153249000Y-105520000D02*
X154449000Y-105520000D01*
X153249000Y-108975563D02*
X153249000Y-105520000D01*
X153699000Y-110530000D02*
X154199000Y-110530000D01*
X153949000Y-110780000D02*
X153949000Y-110280000D01*
X154313437Y-110040000D02*
X153249000Y-108975563D01*
X154313437Y-110040000D02*
X154449000Y-110040000D01*
X156704563Y-110040000D02*
X156569000Y-110040000D01*
X156704563Y-110040000D02*
X157769000Y-108975563D01*
X157769000Y-105520000D02*
X156569000Y-105520000D01*
X157769000Y-108975563D02*
X157769000Y-105520000D01*
D15*
%TO.C,U2*%
X161625800Y-83648800D02*
X161625800Y-86738800D01*
X161625800Y-86738800D02*
X163305800Y-86738800D01*
X163305800Y-83648800D02*
X161625800Y-83648800D01*
X173045800Y-86738800D02*
X174725800Y-86738800D01*
X174725800Y-83648800D02*
X173045800Y-83648800D01*
X174725800Y-86738800D02*
X174725800Y-83648800D01*
D13*
X171025800Y-81672800D02*
G75*
G02*
X170825800Y-81672800I-100000J0D01*
G01*
X170825800Y-81672800D02*
G75*
G02*
X171025800Y-81672800I100000J0D01*
G01*
D16*
%TO.C,C17*%
X153247000Y-98740000D02*
X154447000Y-98740000D01*
X153247000Y-102195563D02*
X153247000Y-98740000D01*
X153697000Y-103750000D02*
X154197000Y-103750000D01*
X153947000Y-104000000D02*
X153947000Y-103500000D01*
X154311437Y-103260000D02*
X153247000Y-102195563D01*
X154311437Y-103260000D02*
X154447000Y-103260000D01*
X156702563Y-103260000D02*
X156567000Y-103260000D01*
X156702563Y-103260000D02*
X157767000Y-102195563D01*
X157767000Y-98740000D02*
X156567000Y-98740000D01*
X157767000Y-102195563D02*
X157767000Y-98740000D01*
%TO.C,D1*%
X127488000Y-97369500D02*
X127488000Y-99654500D01*
X127488000Y-99654500D02*
X128958000Y-99654500D01*
X128958000Y-99654500D02*
X128958000Y-97369500D01*
%TO.C,R13*%
X128447064Y-100465000D02*
X127992936Y-100465000D01*
X128447064Y-101935000D02*
X127992936Y-101935000D01*
%TO.C,C14*%
X147374000Y-103749000D02*
X147374000Y-104949000D01*
X147374000Y-108269000D02*
X147374000Y-107069000D01*
X150829563Y-103749000D02*
X147374000Y-103749000D01*
X150829563Y-108269000D02*
X147374000Y-108269000D01*
X151894000Y-104813437D02*
X150829563Y-103749000D01*
X151894000Y-104813437D02*
X151894000Y-104949000D01*
X151894000Y-107204563D02*
X150829563Y-108269000D01*
X151894000Y-107204563D02*
X151894000Y-107069000D01*
X152384000Y-107819000D02*
X152384000Y-107319000D01*
X152634000Y-107569000D02*
X152134000Y-107569000D01*
%TO.C,R3*%
X175334000Y-89522436D02*
X175334000Y-89976564D01*
X176804000Y-89522436D02*
X176804000Y-89976564D01*
D15*
%TO.C,U4*%
X161610800Y-93536800D02*
X161610800Y-96626800D01*
X161610800Y-96626800D02*
X163290800Y-96626800D01*
X163290800Y-93536800D02*
X161610800Y-93536800D01*
X173030800Y-96626800D02*
X174710800Y-96626800D01*
X174710800Y-93536800D02*
X173030800Y-93536800D01*
X174710800Y-96626800D02*
X174710800Y-93536800D01*
D13*
X171010800Y-91560800D02*
G75*
G02*
X170810800Y-91560800I-100000J0D01*
G01*
X170810800Y-91560800D02*
G75*
G02*
X171010800Y-91560800I100000J0D01*
G01*
D16*
%TO.C,C3*%
X147393000Y-76715000D02*
X147393000Y-77915000D01*
X147393000Y-81235000D02*
X147393000Y-80035000D01*
X150848563Y-76715000D02*
X147393000Y-76715000D01*
X150848563Y-81235000D02*
X147393000Y-81235000D01*
X151913000Y-77779437D02*
X150848563Y-76715000D01*
X151913000Y-77779437D02*
X151913000Y-77915000D01*
X151913000Y-80170563D02*
X150848563Y-81235000D01*
X151913000Y-80170563D02*
X151913000Y-80035000D01*
X152403000Y-80785000D02*
X152403000Y-80285000D01*
X152653000Y-80535000D02*
X152153000Y-80535000D01*
%TO.C,R12*%
X158858000Y-75623064D02*
X158858000Y-75168936D01*
X160328000Y-75623064D02*
X160328000Y-75168936D01*
%TO.C,R6*%
X175287000Y-104399936D02*
X175287000Y-104854064D01*
X176757000Y-104399936D02*
X176757000Y-104854064D01*
%TO.C,C16*%
X148177000Y-108707000D02*
X148177000Y-109907000D01*
X148177000Y-113227000D02*
X148177000Y-112027000D01*
X151632563Y-108707000D02*
X148177000Y-108707000D01*
X151632563Y-113227000D02*
X148177000Y-113227000D01*
X152697000Y-109771437D02*
X151632563Y-108707000D01*
X152697000Y-109771437D02*
X152697000Y-109907000D01*
X152697000Y-112162563D02*
X151632563Y-113227000D01*
X152697000Y-112162563D02*
X152697000Y-112027000D01*
X153187000Y-112777000D02*
X153187000Y-112277000D01*
X153437000Y-112527000D02*
X152937000Y-112527000D01*
%TO.C,R8*%
X175284000Y-114239436D02*
X175284000Y-114693564D01*
X176754000Y-114239436D02*
X176754000Y-114693564D01*
%TO.C,C11*%
X147310000Y-93226000D02*
X147310000Y-94426000D01*
X147310000Y-97746000D02*
X147310000Y-96546000D01*
X150765563Y-93226000D02*
X147310000Y-93226000D01*
X150765563Y-97746000D02*
X147310000Y-97746000D01*
X151830000Y-94290437D02*
X150765563Y-93226000D01*
X151830000Y-94290437D02*
X151830000Y-94426000D01*
X151830000Y-96681563D02*
X150765563Y-97746000D01*
X151830000Y-96681563D02*
X151830000Y-96546000D01*
X152320000Y-97296000D02*
X152320000Y-96796000D01*
X152570000Y-97046000D02*
X152070000Y-97046000D01*
%TO.C,R1*%
X175271000Y-79706436D02*
X175271000Y-80160564D01*
X176741000Y-79706436D02*
X176741000Y-80160564D01*
%TO.C,R5*%
X175296000Y-99353436D02*
X175296000Y-99807564D01*
X176766000Y-99353436D02*
X176766000Y-99807564D01*
D15*
%TO.C,U8*%
X161572800Y-113307800D02*
X161572800Y-116397800D01*
X161572800Y-116397800D02*
X163252800Y-116397800D01*
X163252800Y-113307800D02*
X161572800Y-113307800D01*
X172992800Y-116397800D02*
X174672800Y-116397800D01*
X174672800Y-113307800D02*
X172992800Y-113307800D01*
X174672800Y-116397800D02*
X174672800Y-113307800D01*
D13*
X170972800Y-111331800D02*
G75*
G02*
X170772800Y-111331800I-100000J0D01*
G01*
X170772800Y-111331800D02*
G75*
G02*
X170972800Y-111331800I100000J0D01*
G01*
%TD*%
M02*
