M48
; DRILL file {KiCad 9.0.2} date 2026-09-22T20:08:43-0400
; FORMAT={-:-/ absolute / metric / decimal}
; #@! TF.CreationDate,2026-09-22T20:08:43-04:00
; #@! TF.GenerationSoftware,Kicad,Pcbnew,9.0.2
; #@! TF.FileFunction,Plated,1,2,PTH
FMAT,2
METRIC
; #@! TA.AperFunction,Plated,PTH,ComponentDrill
T1C0.600
; #@! TA.AperFunction,Plated,PTH,ComponentDrill
T2C1.000
; #@! TA.AperFunction,Plated,PTH,ComponentDrill
T3C1.016
%
G90
G05
T2
X133.346Y-79.71
X133.346Y-82.25
X133.346Y-84.79
X133.346Y-87.33
X133.346Y-89.87
X133.346Y-92.41
X133.346Y-94.95
X133.346Y-97.49
X133.346Y-100.03
X133.346Y-102.57
X133.346Y-105.11
X133.346Y-107.65
X133.346Y-110.19
X133.346Y-112.73
X133.346Y-115.27
X159.006Y-79.71
X159.006Y-82.25
X159.006Y-84.79
X159.006Y-87.33
X159.006Y-89.87
X159.006Y-92.41
X159.006Y-94.95
X159.006Y-97.49
X159.006Y-100.03
X159.006Y-102.57
X159.006Y-105.11
X159.006Y-107.65
X159.006Y-110.19
X159.006Y-112.73
X159.006Y-115.27
T3
X147.585Y-122.768
X150.125Y-122.768
X152.665Y-122.768
X155.205Y-122.768
X157.745Y-122.768
T1
X161.37Y-71.923G85X161.37Y-71.123
G05
X161.37Y-76.253G85X161.37Y-75.153
G05
X170.01Y-71.923G85X170.01Y-71.123
G05
X170.01Y-76.253G85X170.01Y-75.153
G05
M30
