%TF.GenerationSoftware,KiCad,Pcbnew,9.0.2*%
%TF.CreationDate,2026-09-22T20:08:41-04:00*%
%TF.ProjectId,holocube,686f6c6f-6375-4626-952e-6b696361645f,rev?*%
%TF.SameCoordinates,Original*%
%TF.FileFunction,Copper,L1,Top*%
%TF.FilePolarity,Positive*%
%FSLAX46Y46*%
G04 Gerber Fmt 4.6, Leading zero omitted, Abs format (unit mm)*
G04 Created by KiCad (PCBNEW 9.0.2) date 2026-09-22 20:08:41*
%MOMM*%
%LPD*%
G01*
G04 APERTURE LIST*
G04 Aperture macros list*
%AMRoundRect*
0 Rectangle with rounded corners*
0 $1 Rounding radius*
0 $2 $3 $4 $5 $6 $7 $8 $9 X,Y pos of 4 corners*
0 Add a 4 corners polygon primitive as box body*
4,1,4,$2,$3,$4,$5,$6,$7,$8,$9,$2,$3,0*
0 Add four circle primitives for the rounded corners*
1,1,$1+$1,$2,$3*
1,1,$1+$1,$4,$5*
1,1,$1+$1,$6,$7*
1,1,$1+$1,$8,$9*
0 Add four rect primitives between the rounded corners*
20,1,$1+$1,$2,$3,$4,$5,0*
20,1,$1+$1,$4,$5,$6,$7,0*
20,1,$1+$1,$6,$7,$8,$9,0*
20,1,$1+$1,$8,$9,$2,$3,0*%
G04 Aperture macros list end*
%TA.AperFunction,ComponentPad*%
%ADD10O,1.000000X1.800000*%
%TD*%
%TA.AperFunction,ComponentPad*%
%ADD11O,1.000000X2.100000*%
%TD*%
%TA.AperFunction,SMDPad,CuDef*%
%ADD12R,0.300000X1.150000*%
%TD*%
%TA.AperFunction,SMDPad,CuDef*%
%ADD13R,0.600000X1.150000*%
%TD*%
%TA.AperFunction,ComponentPad*%
%ADD14C,1.930400*%
%TD*%
%TA.AperFunction,ComponentPad*%
%ADD15R,1.930400X1.930400*%
%TD*%
%TA.AperFunction,ComponentPad*%
%ADD16C,1.800000*%
%TD*%
%TA.AperFunction,SMDPad,CuDef*%
%ADD17R,0.400000X1.500000*%
%TD*%
%TA.AperFunction,SMDPad,CuDef*%
%ADD18R,1.100000X1.500000*%
%TD*%
%TA.AperFunction,SMDPad,CuDef*%
%ADD19RoundRect,0.250000X-0.450000X0.262500X-0.450000X-0.262500X0.450000X-0.262500X0.450000X0.262500X0*%
%TD*%
%TA.AperFunction,SMDPad,CuDef*%
%ADD20RoundRect,0.250000X0.550000X-1.050000X0.550000X1.050000X-0.550000X1.050000X-0.550000X-1.050000X0*%
%TD*%
%TA.AperFunction,SMDPad,CuDef*%
%ADD21RoundRect,0.250000X-0.550000X1.050000X-0.550000X-1.050000X0.550000X-1.050000X0.550000X1.050000X0*%
%TD*%
%TA.AperFunction,SMDPad,CuDef*%
%ADD22RoundRect,0.225000X-0.250000X0.225000X-0.250000X-0.225000X0.250000X-0.225000X0.250000X0.225000X0*%
%TD*%
%TA.AperFunction,SMDPad,CuDef*%
%ADD23RoundRect,0.250000X-0.475000X0.250000X-0.475000X-0.250000X0.475000X-0.250000X0.475000X0.250000X0*%
%TD*%
%TA.AperFunction,SMDPad,CuDef*%
%ADD24RoundRect,0.250000X0.450000X-0.262500X0.450000X0.262500X-0.450000X0.262500X-0.450000X-0.262500X0*%
%TD*%
%TA.AperFunction,SMDPad,CuDef*%
%ADD25RoundRect,0.250000X1.050000X0.550000X-1.050000X0.550000X-1.050000X-0.550000X1.050000X-0.550000X0*%
%TD*%
%TA.AperFunction,SMDPad,CuDef*%
%ADD26RoundRect,0.218750X0.256250X-0.218750X0.256250X0.218750X-0.256250X0.218750X-0.256250X-0.218750X0*%
%TD*%
%TA.AperFunction,SMDPad,CuDef*%
%ADD27RoundRect,0.250000X0.262500X0.450000X-0.262500X0.450000X-0.262500X-0.450000X0.262500X-0.450000X0*%
%TD*%
G04 APERTURE END LIST*
D10*
%TO.P,J2,SH4,SHELL_GND*%
%TO.N,SHELL_GND*%
X161370000Y-71523000D03*
%TO.P,J2,SH3,SHELL_GND*%
X170010000Y-71523000D03*
D11*
%TO.P,J2,SH2,SHELL_GND*%
X161370000Y-75703000D03*
%TO.P,J2,SH1,SHELL_GND*%
X170010000Y-75703000D03*
D12*
%TO.P,J2,B8,SBU2*%
%TO.N,unconnected-(J2-SBU2-PadB8)*%
X167440000Y-76278000D03*
%TO.P,J2,B7,DN2*%
%TO.N,unconnected-(J2-DN2-PadB7)*%
X166440000Y-76278000D03*
%TO.P,J2,B6,DP2*%
%TO.N,unconnected-(J2-DP2-PadB6)*%
X164940000Y-76278000D03*
%TO.P,J2,B5,CC2*%
%TO.N,Net-(J2-CC2)*%
X163940000Y-76278000D03*
D13*
%TO.P,J2,B4_A9,VBUS*%
%TO.N,BOOST_IN*%
X163290000Y-76278000D03*
%TO.P,J2,B1_A12,GND*%
%TO.N,GND*%
X162490000Y-76278000D03*
D12*
%TO.P,J2,A8,SBU1*%
%TO.N,unconnected-(J2-SBU1-PadA8)*%
X164440000Y-76278000D03*
%TO.P,J2,A7,DN1*%
%TO.N,unconnected-(J2-DN1-PadA7)*%
X165440000Y-76278000D03*
%TO.P,J2,A6,DP1*%
%TO.N,unconnected-(J2-DP1-PadA6)*%
X165940000Y-76278000D03*
%TO.P,J2,A5,CC1*%
%TO.N,Net-(J2-CC1)*%
X166940000Y-76278000D03*
D13*
%TO.P,J2,A4_B9,VBUS*%
%TO.N,BOOST_IN*%
X168090000Y-76278000D03*
%TO.P,J2,A1_B12,GND*%
%TO.N,GND*%
X168890000Y-76278000D03*
%TD*%
D14*
%TO.P,U11,CLK,CLK*%
%TO.N,KY_CLK*%
X147585000Y-122768000D03*
%TO.P,U11,DT,DT*%
%TO.N,KY_DT*%
X150125000Y-122768000D03*
D15*
%TO.P,U11,GND,GND*%
%TO.N,GND*%
X157745000Y-122768000D03*
D14*
%TO.P,U11,SW,SW*%
%TO.N,KY_SW*%
X152665000Y-122768000D03*
%TO.P,U11,VCC,VCC*%
%TO.N,+3.3V*%
X155205000Y-122768000D03*
%TD*%
D16*
%TO.P,U9,1,VIN*%
%TO.N,BOOST_IN*%
X133346000Y-79710000D03*
%TO.P,U9,2,GND*%
%TO.N,GND*%
X133346000Y-82250000D03*
%TO.P,U9,3,D13*%
%TO.N,CS1*%
X133346000Y-84790000D03*
%TO.P,U9,4,D12*%
%TO.N,unconnected-(U9-D12-Pad4)*%
X133346000Y-87330000D03*
%TO.P,U9,5,D14*%
%TO.N,unconnected-(U9-D14-Pad5)*%
X133346000Y-89870000D03*
%TO.P,U9,6,D27*%
%TO.N,CS2*%
X133346000Y-92410000D03*
%TO.P,U9,7,D26*%
%TO.N,CS3*%
X133346000Y-94950000D03*
%TO.P,U9,8,D25*%
%TO.N,CS4*%
X133346000Y-97490000D03*
%TO.P,U9,9,D33*%
%TO.N,CS5*%
X133346000Y-100030000D03*
%TO.P,U9,10,D32*%
%TO.N,CS6*%
X133346000Y-102570000D03*
%TO.P,U9,11,D35*%
%TO.N,KY_CLK*%
X133346000Y-105110000D03*
%TO.P,U9,12,D34*%
%TO.N,KY_DT*%
X133346000Y-107650000D03*
%TO.P,U9,13,VN*%
%TO.N,unconnected-(U9-VN-Pad13)*%
X133346000Y-110190000D03*
%TO.P,U9,14,VP*%
%TO.N,unconnected-(U9-VP-Pad14)*%
X133346000Y-112730000D03*
%TO.P,U9,15,EN*%
%TO.N,unconnected-(U9-EN-Pad15)*%
X133346000Y-115270000D03*
%TO.P,U9,16,3V3*%
%TO.N,+3.3V*%
X159006000Y-79710000D03*
%TO.P,U9,17,GND*%
%TO.N,GND*%
X159006000Y-82250000D03*
%TO.P,U9,18,D15*%
%TO.N,unconnected-(U9-D15-Pad18)*%
X159006000Y-84790000D03*
%TO.P,U9,19,D2*%
%TO.N,unconnected-(U9-D2-Pad19)*%
X159006000Y-87330000D03*
%TO.P,U9,20,D4*%
%TO.N,LED*%
X159006000Y-89870000D03*
%TO.P,U9,21,RX2*%
%TO.N,CS7*%
X159006000Y-92410000D03*
%TO.P,U9,22,TX2*%
%TO.N,CS8*%
X159006000Y-94950000D03*
%TO.P,U9,23,D5*%
%TO.N,unconnected-(U9-D5-Pad23)*%
X159006000Y-97490000D03*
%TO.P,U9,24,D18*%
%TO.N,SCL*%
X159006000Y-100030000D03*
%TO.P,U9,25,D19*%
%TO.N,RES*%
X159006000Y-102570000D03*
%TO.P,U9,26,D21*%
%TO.N,A0*%
X159006000Y-105110000D03*
%TO.P,U9,27,RX0*%
%TO.N,unconnected-(U9-RX0-Pad27)*%
X159006000Y-107650000D03*
%TO.P,U9,28,TX0*%
%TO.N,unconnected-(U9-TX0-Pad28)*%
X159006000Y-110190000D03*
%TO.P,U9,29,D22*%
%TO.N,KY_SW*%
X159006000Y-112730000D03*
%TO.P,U9,30,D23*%
%TO.N,SI*%
X159006000Y-115270000D03*
%TD*%
D17*
%TO.P,U5,1,VSS*%
%TO.N,GND*%
X170901800Y-98243800D03*
%TO.P,U5,2,SI*%
%TO.N,SI*%
X170401800Y-101043800D03*
%TO.P,U5,3,SCL*%
%TO.N,SCL*%
X169901800Y-98243800D03*
%TO.P,U5,4,A0*%
%TO.N,A0*%
X169401800Y-101043800D03*
%TO.P,U5,5,RES*%
%TO.N,RES*%
X168901800Y-98243800D03*
%TO.P,U5,6,CS*%
%TO.N,CS5*%
X168401800Y-101043800D03*
%TO.P,U5,7,IREF*%
%TO.N,Net-(U5-IREF)*%
X167901800Y-98243800D03*
%TO.P,U5,8,VDD*%
%TO.N,+3.3V*%
X167401800Y-101043800D03*
%TO.P,U5,9,VSS*%
%TO.N,GND*%
X166901800Y-98243800D03*
%TO.P,U5,10,VCOMH*%
%TO.N,Net-(U5-VCOMH)*%
X166401800Y-101043800D03*
%TO.P,U5,11,VPP*%
%TO.N,+13.5V*%
X165901800Y-98243800D03*
%TO.P,U5,12,VSS*%
%TO.N,GND*%
X165401800Y-101043800D03*
D18*
%TO.P,U5,SH1,Shield*%
X164151800Y-98243800D03*
X164151800Y-101043800D03*
X172151800Y-98243800D03*
X172151800Y-101043800D03*
%TD*%
D19*
%TO.P,R2,1*%
%TO.N,Net-(U2-IREF)*%
X176081000Y-83991000D03*
%TO.P,R2,2*%
%TO.N,GND*%
X176081000Y-85816000D03*
%TD*%
D20*
%TO.P,C9,1*%
%TO.N,Net-(U3-VCOMH)*%
X155512000Y-89248000D03*
%TO.P,C9,2*%
%TO.N,GND*%
X155512000Y-85648000D03*
%TD*%
D17*
%TO.P,U1,1,VSS*%
%TO.N,GND*%
X170914000Y-78474000D03*
%TO.P,U1,2,SI*%
%TO.N,SI*%
X170414000Y-81274000D03*
%TO.P,U1,3,SCL*%
%TO.N,SCL*%
X169914000Y-78474000D03*
%TO.P,U1,4,A0*%
%TO.N,A0*%
X169414000Y-81274000D03*
%TO.P,U1,5,RES*%
%TO.N,RES*%
X168914000Y-78474000D03*
%TO.P,U1,6,CS*%
%TO.N,CS1*%
X168414000Y-81274000D03*
%TO.P,U1,7,IREF*%
%TO.N,Net-(U1-IREF)*%
X167914000Y-78474000D03*
%TO.P,U1,8,VDD*%
%TO.N,+3.3V*%
X167414000Y-81274000D03*
%TO.P,U1,9,VSS*%
%TO.N,GND*%
X166914000Y-78474000D03*
%TO.P,U1,10,VCOMH*%
%TO.N,Net-(U1-VCOMH)*%
X166414000Y-81274000D03*
%TO.P,U1,11,VPP*%
%TO.N,+13.5V*%
X165914000Y-78474000D03*
%TO.P,U1,12,VSS*%
%TO.N,GND*%
X165414000Y-81274000D03*
D18*
%TO.P,U1,SH1,Shield*%
X164164000Y-78474000D03*
X164164000Y-81274000D03*
X172164000Y-78474000D03*
X172164000Y-81274000D03*
%TD*%
D21*
%TO.P,C24,1*%
%TO.N,Net-(U8-VCOMH)*%
X165191000Y-118602000D03*
%TO.P,C24,2*%
%TO.N,GND*%
X165191000Y-122202000D03*
%TD*%
D22*
%TO.P,C26,1*%
%TO.N,SHELL_GND*%
X159812000Y-71409000D03*
%TO.P,C26,2*%
%TO.N,GND*%
X159812000Y-72959000D03*
%TD*%
D23*
%TO.P,C19,1*%
%TO.N,GND*%
X178087000Y-108525000D03*
%TO.P,C19,2*%
%TO.N,+3.3V*%
X178087000Y-110425000D03*
%TD*%
%TO.P,C15,1*%
%TO.N,GND*%
X178057000Y-103672000D03*
%TO.P,C15,2*%
%TO.N,+3.3V*%
X178057000Y-105572000D03*
%TD*%
%TO.P,C10,1*%
%TO.N,GND*%
X178040000Y-93892000D03*
%TO.P,C10,2*%
%TO.N,+3.3V*%
X178040000Y-95792000D03*
%TD*%
D24*
%TO.P,R11,1*%
%TO.N,Net-(J2-CC1)*%
X171748000Y-76325000D03*
%TO.P,R11,2*%
%TO.N,GND*%
X171748000Y-74500000D03*
%TD*%
D21*
%TO.P,C22,1*%
%TO.N,+13.5V*%
X170131000Y-118564000D03*
%TO.P,C22,2*%
%TO.N,GND*%
X170131000Y-122164000D03*
%TD*%
D17*
%TO.P,U6,1,VSS*%
%TO.N,GND*%
X170884800Y-103191800D03*
%TO.P,U6,2,SI*%
%TO.N,SI*%
X170384800Y-105991800D03*
%TO.P,U6,3,SCL*%
%TO.N,SCL*%
X169884800Y-103191800D03*
%TO.P,U6,4,A0*%
%TO.N,A0*%
X169384800Y-105991800D03*
%TO.P,U6,5,RES*%
%TO.N,RES*%
X168884800Y-103191800D03*
%TO.P,U6,6,CS*%
%TO.N,CS6*%
X168384800Y-105991800D03*
%TO.P,U6,7,IREF*%
%TO.N,Net-(U6-IREF)*%
X167884800Y-103191800D03*
%TO.P,U6,8,VDD*%
%TO.N,+3.3V*%
X167384800Y-105991800D03*
%TO.P,U6,9,VSS*%
%TO.N,GND*%
X166884800Y-103191800D03*
%TO.P,U6,10,VCOMH*%
%TO.N,Net-(U6-VCOMH)*%
X166384800Y-105991800D03*
%TO.P,U6,11,VPP*%
%TO.N,+13.5V*%
X165884800Y-103191800D03*
%TO.P,U6,12,VSS*%
%TO.N,GND*%
X165384800Y-105991800D03*
D18*
%TO.P,U6,SH1,Shield*%
X164134800Y-103191800D03*
X164134800Y-105991800D03*
X172134800Y-103191800D03*
X172134800Y-105991800D03*
%TD*%
D23*
%TO.P,C13,1*%
%TO.N,GND*%
X178042000Y-98598000D03*
%TO.P,C13,2*%
%TO.N,+3.3V*%
X178042000Y-100498000D03*
%TD*%
D19*
%TO.P,R7,1*%
%TO.N,Net-(U7-IREF)*%
X176018000Y-108577000D03*
%TO.P,R7,2*%
%TO.N,GND*%
X176018000Y-110402000D03*
%TD*%
D23*
%TO.P,C2,1*%
%TO.N,GND*%
X178035000Y-78962000D03*
%TO.P,C2,2*%
%TO.N,+3.3V*%
X178035000Y-80862000D03*
%TD*%
D17*
%TO.P,U7,1,VSS*%
%TO.N,GND*%
X170868800Y-108127800D03*
%TO.P,U7,2,SI*%
%TO.N,SI*%
X170368800Y-110927800D03*
%TO.P,U7,3,SCL*%
%TO.N,SCL*%
X169868800Y-108127800D03*
%TO.P,U7,4,A0*%
%TO.N,A0*%
X169368800Y-110927800D03*
%TO.P,U7,5,RES*%
%TO.N,RES*%
X168868800Y-108127800D03*
%TO.P,U7,6,CS*%
%TO.N,CS7*%
X168368800Y-110927800D03*
%TO.P,U7,7,IREF*%
%TO.N,Net-(U7-IREF)*%
X167868800Y-108127800D03*
%TO.P,U7,8,VDD*%
%TO.N,+3.3V*%
X167368800Y-110927800D03*
%TO.P,U7,9,VSS*%
%TO.N,GND*%
X166868800Y-108127800D03*
%TO.P,U7,10,VCOMH*%
%TO.N,Net-(U7-VCOMH)*%
X166368800Y-110927800D03*
%TO.P,U7,11,VPP*%
%TO.N,+13.5V*%
X165868800Y-108127800D03*
%TO.P,U7,12,VSS*%
%TO.N,GND*%
X165368800Y-110927800D03*
D18*
%TO.P,U7,SH1,Shield*%
X164118800Y-108127800D03*
X164118800Y-110927800D03*
X172118800Y-108127800D03*
X172118800Y-110927800D03*
%TD*%
D20*
%TO.P,C12,1*%
%TO.N,Net-(U4-VCOMH)*%
X155512000Y-96018000D03*
%TO.P,C12,2*%
%TO.N,GND*%
X155512000Y-92418000D03*
%TD*%
%TO.P,C23,1*%
%TO.N,Net-(U7-VCOMH)*%
X155513000Y-116360000D03*
%TO.P,C23,2*%
%TO.N,GND*%
X155513000Y-112760000D03*
%TD*%
D25*
%TO.P,C20,1*%
%TO.N,+13.5V*%
X151509000Y-115814000D03*
%TO.P,C20,2*%
%TO.N,GND*%
X147909000Y-115814000D03*
%TD*%
D23*
%TO.P,C7,1*%
%TO.N,GND*%
X178098000Y-88835000D03*
%TO.P,C7,2*%
%TO.N,+3.3V*%
X178098000Y-90735000D03*
%TD*%
D19*
%TO.P,R14,1*%
%TO.N,SHELL_GND*%
X171714000Y-71116000D03*
%TO.P,R14,2*%
%TO.N,GND*%
X171714000Y-72941000D03*
%TD*%
%TO.P,R4,1*%
%TO.N,Net-(U4-IREF)*%
X176033000Y-93918000D03*
%TO.P,R4,2*%
%TO.N,GND*%
X176033000Y-95743000D03*
%TD*%
D25*
%TO.P,C5,1*%
%TO.N,+13.5V*%
X152277000Y-83874000D03*
%TO.P,C5,2*%
%TO.N,GND*%
X148677000Y-83874000D03*
%TD*%
D20*
%TO.P,C6,1*%
%TO.N,Net-(U2-VCOMH)*%
X155509000Y-82472000D03*
%TO.P,C6,2*%
%TO.N,GND*%
X155509000Y-78872000D03*
%TD*%
%TO.P,C1,1*%
%TO.N,Net-(U1-VCOMH)*%
X155512000Y-75686000D03*
%TO.P,C1,2*%
%TO.N,GND*%
X155512000Y-72086000D03*
%TD*%
D17*
%TO.P,U3,1,VSS*%
%TO.N,GND*%
X170923800Y-88364800D03*
%TO.P,U3,2,SI*%
%TO.N,SI*%
X170423800Y-91164800D03*
%TO.P,U3,3,SCL*%
%TO.N,SCL*%
X169923800Y-88364800D03*
%TO.P,U3,4,A0*%
%TO.N,A0*%
X169423800Y-91164800D03*
%TO.P,U3,5,RES*%
%TO.N,RES*%
X168923800Y-88364800D03*
%TO.P,U3,6,CS*%
%TO.N,CS3*%
X168423800Y-91164800D03*
%TO.P,U3,7,IREF*%
%TO.N,Net-(U3-IREF)*%
X167923800Y-88364800D03*
%TO.P,U3,8,VDD*%
%TO.N,+3.3V*%
X167423800Y-91164800D03*
%TO.P,U3,9,VSS*%
%TO.N,GND*%
X166923800Y-88364800D03*
%TO.P,U3,10,VCOMH*%
%TO.N,Net-(U3-VCOMH)*%
X166423800Y-91164800D03*
%TO.P,U3,11,VPP*%
%TO.N,+13.5V*%
X165923800Y-88364800D03*
%TO.P,U3,12,VSS*%
%TO.N,GND*%
X165423800Y-91164800D03*
D18*
%TO.P,U3,SH1,Shield*%
X164173800Y-88364800D03*
X164173800Y-91164800D03*
X172173800Y-88364800D03*
X172173800Y-91164800D03*
%TD*%
D23*
%TO.P,C4,1*%
%TO.N,GND*%
X178082000Y-83962000D03*
%TO.P,C4,2*%
%TO.N,+3.3V*%
X178082000Y-85862000D03*
%TD*%
%TO.P,C21,1*%
%TO.N,GND*%
X178066000Y-113531000D03*
%TO.P,C21,2*%
%TO.N,+3.3V*%
X178066000Y-115431000D03*
%TD*%
D25*
%TO.P,C8,1*%
%TO.N,+13.5V*%
X152268000Y-90572000D03*
%TO.P,C8,2*%
%TO.N,GND*%
X148668000Y-90572000D03*
%TD*%
D20*
%TO.P,C18,1*%
%TO.N,Net-(U6-VCOMH)*%
X155509000Y-109580000D03*
%TO.P,C18,2*%
%TO.N,GND*%
X155509000Y-105980000D03*
%TD*%
D17*
%TO.P,U2,1,VSS*%
%TO.N,GND*%
X170925800Y-83422800D03*
%TO.P,U2,2,SI*%
%TO.N,SI*%
X170425800Y-86222800D03*
%TO.P,U2,3,SCL*%
%TO.N,SCL*%
X169925800Y-83422800D03*
%TO.P,U2,4,A0*%
%TO.N,A0*%
X169425800Y-86222800D03*
%TO.P,U2,5,RES*%
%TO.N,RES*%
X168925800Y-83422800D03*
%TO.P,U2,6,CS*%
%TO.N,CS2*%
X168425800Y-86222800D03*
%TO.P,U2,7,IREF*%
%TO.N,Net-(U2-IREF)*%
X167925800Y-83422800D03*
%TO.P,U2,8,VDD*%
%TO.N,+3.3V*%
X167425800Y-86222800D03*
%TO.P,U2,9,VSS*%
%TO.N,GND*%
X166925800Y-83422800D03*
%TO.P,U2,10,VCOMH*%
%TO.N,Net-(U2-VCOMH)*%
X166425800Y-86222800D03*
%TO.P,U2,11,VPP*%
%TO.N,+13.5V*%
X165925800Y-83422800D03*
%TO.P,U2,12,VSS*%
%TO.N,GND*%
X165425800Y-86222800D03*
D18*
%TO.P,U2,SH1,Shield*%
X164175800Y-83422800D03*
X164175800Y-86222800D03*
X172175800Y-83422800D03*
X172175800Y-86222800D03*
%TD*%
D20*
%TO.P,C17,1*%
%TO.N,Net-(U5-VCOMH)*%
X155507000Y-102800000D03*
%TO.P,C17,2*%
%TO.N,GND*%
X155507000Y-99200000D03*
%TD*%
D26*
%TO.P,D1,1,K*%
%TO.N,Net-(D1-K)*%
X128223000Y-98957000D03*
%TO.P,D1,2,A*%
%TO.N,LED*%
X128223000Y-97382000D03*
%TD*%
D27*
%TO.P,R13,1*%
%TO.N,Net-(D1-K)*%
X129132500Y-101200000D03*
%TO.P,R13,2*%
%TO.N,GND*%
X127307500Y-101200000D03*
%TD*%
D25*
%TO.P,C14,1*%
%TO.N,+13.5V*%
X151434000Y-106009000D03*
%TO.P,C14,2*%
%TO.N,GND*%
X147834000Y-106009000D03*
%TD*%
D19*
%TO.P,R3,1*%
%TO.N,Net-(U3-IREF)*%
X176069000Y-88837000D03*
%TO.P,R3,2*%
%TO.N,GND*%
X176069000Y-90662000D03*
%TD*%
D17*
%TO.P,U4,1,VSS*%
%TO.N,GND*%
X170910800Y-93310800D03*
%TO.P,U4,2,SI*%
%TO.N,SI*%
X170410800Y-96110800D03*
%TO.P,U4,3,SCL*%
%TO.N,SCL*%
X169910800Y-93310800D03*
%TO.P,U4,4,A0*%
%TO.N,A0*%
X169410800Y-96110800D03*
%TO.P,U4,5,RES*%
%TO.N,RES*%
X168910800Y-93310800D03*
%TO.P,U4,6,CS*%
%TO.N,CS4*%
X168410800Y-96110800D03*
%TO.P,U4,7,IREF*%
%TO.N,Net-(U4-IREF)*%
X167910800Y-93310800D03*
%TO.P,U4,8,VDD*%
%TO.N,+3.3V*%
X167410800Y-96110800D03*
%TO.P,U4,9,VSS*%
%TO.N,GND*%
X166910800Y-93310800D03*
%TO.P,U4,10,VCOMH*%
%TO.N,Net-(U4-VCOMH)*%
X166410800Y-96110800D03*
%TO.P,U4,11,VPP*%
%TO.N,+13.5V*%
X165910800Y-93310800D03*
%TO.P,U4,12,VSS*%
%TO.N,GND*%
X165410800Y-96110800D03*
D18*
%TO.P,U4,SH1,Shield*%
X164160800Y-93310800D03*
X164160800Y-96110800D03*
X172160800Y-93310800D03*
X172160800Y-96110800D03*
%TD*%
D25*
%TO.P,C3,1*%
%TO.N,+13.5V*%
X151453000Y-78975000D03*
%TO.P,C3,2*%
%TO.N,GND*%
X147853000Y-78975000D03*
%TD*%
D24*
%TO.P,R12,1*%
%TO.N,Net-(J2-CC2)*%
X159593000Y-76308500D03*
%TO.P,R12,2*%
%TO.N,GND*%
X159593000Y-74483500D03*
%TD*%
D19*
%TO.P,R6,1*%
%TO.N,Net-(U6-IREF)*%
X176022000Y-103714500D03*
%TO.P,R6,2*%
%TO.N,GND*%
X176022000Y-105539500D03*
%TD*%
D25*
%TO.P,C16,1*%
%TO.N,+13.5V*%
X152237000Y-110967000D03*
%TO.P,C16,2*%
%TO.N,GND*%
X148637000Y-110967000D03*
%TD*%
D19*
%TO.P,R8,1*%
%TO.N,Net-(U8-IREF)*%
X176019000Y-113554000D03*
%TO.P,R8,2*%
%TO.N,GND*%
X176019000Y-115379000D03*
%TD*%
D25*
%TO.P,C11,1*%
%TO.N,+13.5V*%
X151370000Y-95486000D03*
%TO.P,C11,2*%
%TO.N,GND*%
X147770000Y-95486000D03*
%TD*%
D19*
%TO.P,R1,1*%
%TO.N,Net-(U1-IREF)*%
X176006000Y-79021000D03*
%TO.P,R1,2*%
%TO.N,GND*%
X176006000Y-80846000D03*
%TD*%
%TO.P,R5,1*%
%TO.N,Net-(U5-IREF)*%
X176031000Y-98668000D03*
%TO.P,R5,2*%
%TO.N,GND*%
X176031000Y-100493000D03*
%TD*%
D17*
%TO.P,U8,1,VSS*%
%TO.N,GND*%
X170872800Y-113081800D03*
%TO.P,U8,2,SI*%
%TO.N,SI*%
X170372800Y-115881800D03*
%TO.P,U8,3,SCL*%
%TO.N,SCL*%
X169872800Y-113081800D03*
%TO.P,U8,4,A0*%
%TO.N,A0*%
X169372800Y-115881800D03*
%TO.P,U8,5,RES*%
%TO.N,RES*%
X168872800Y-113081800D03*
%TO.P,U8,6,CS*%
%TO.N,CS8*%
X168372800Y-115881800D03*
%TO.P,U8,7,IREF*%
%TO.N,Net-(U8-IREF)*%
X167872800Y-113081800D03*
%TO.P,U8,8,VDD*%
%TO.N,+3.3V*%
X167372800Y-115881800D03*
%TO.P,U8,9,VSS*%
%TO.N,GND*%
X166872800Y-113081800D03*
%TO.P,U8,10,VCOMH*%
%TO.N,Net-(U8-VCOMH)*%
X166372800Y-115881800D03*
%TO.P,U8,11,VPP*%
%TO.N,+13.5V*%
X165872800Y-113081800D03*
%TO.P,U8,12,VSS*%
%TO.N,GND*%
X165372800Y-115881800D03*
D18*
%TO.P,U8,SH1,Shield*%
X164122800Y-113081800D03*
X164122800Y-115881800D03*
X172122800Y-113081800D03*
X172122800Y-115881800D03*
%TD*%
M02*
